<svg width="26" height="36" viewBox="0 0 26 36" fill="none" xmlns="http://www.w3.org/2000/svg">
<path d="M16.6294 19.629C16.6294 19.629 24.4441 17.4208 25.976 11.3887C25.976 11.3887 20.3083 15.4413 18.5607 16.477L16.8163 17.5127L16.6294 19.629Z" fill="url(#paint0_linear_42_1701)"/>
<path d="M16.7605 16.7257C17.0624 17.7487 25.4969 11.2537 25.9762 11.3888C26.4554 11.5239 19.3851 16.1475 18.1199 17.1057C16.8547 18.0639 16.8148 17.5146 16.8148 17.5146L16.7605 16.7257Z" fill="url(#paint1_linear_42_1701)"/>
<path d="M0.0351665 13.1899C0.0255819 13.8222 6.70929 19.3481 10.54 18.8834C14.3706 18.4187 8.75881 16.7923 8.75881 16.7923L0.0351665 13.1899Z" fill="url(#paint2_linear_42_1701)"/>
<path d="M8.54324 16.5688C8.54324 16.5688 2.67263 14.1229 0.480935 13.2043C-1.71076 12.2857 4.03046 16.3509 8.99212 17.0371L8.54324 16.5688Z" fill="url(#paint3_linear_42_1701)"/>
<path d="M21.0543 7.71077C18.2492 11.9705 16.6486 17.1543 17.1709 22.7109C17.1278 23.2026 17.1118 23.4512 17.0911 23.9465C17.0743 25.7076 17.1811 27.4675 17.4105 29.2095C15.9728 29.015 14.5815 30.1966 14.5815 30.1966C13.0162 28.5932 11.5665 26.8519 10.246 24.9894C9.98882 24.6058 9.86262 24.4112 9.61821 24.0168C7.56709 18.0945 6.76837 12.1471 6.82588 5.73849C9.57029 2.53241 15.155 -2.87111 18.7907 1.86597C19.9681 3.39877 20.5831 5.70427 21.0559 7.70537L21.0543 7.71077Z" fill="url(#paint4_linear_42_1701)"/>
<path d="M14.6104 29.8707C14.6104 29.8707 16.6008 32.0321 17.2813 32.0051C17.9618 31.978 17.2158 28.8296 17.2158 28.8296C17.2158 28.8296 15.2365 27.6462 14.6104 29.8707Z" fill="url(#paint5_linear_42_1701)"/>
<path d="M6.84991 9.66675C8.12787 8.9805 9.6087 8.26904 10.9569 8.18258C12.7435 8.10782 14.5202 8.5128 16.1406 9.36415C16.9218 9.78563 18.8819 11.6012 18.8819 11.6012C18.9905 11.3346 19.0416 11.2013 19.1598 10.9402C19.1598 10.9402 17.0991 8.79678 16.4745 8.44015C14.9026 7.53956 12.778 7.34143 11.0704 7.33423C9.67259 7.33423 8.15342 8.06911 6.82275 8.75535C6.82914 9.11919 6.83553 9.30291 6.84991 9.66675Z" fill="url(#paint6_radial_42_1701)"/>
<path d="M17.1711 22.7109C16.9767 24.8787 17.0557 27.0667 17.4059 29.2095C16.6408 28.5431 16.1408 28.8583 15.7782 29.4653C14.775 29.3014 14.5992 30.0309 14.5785 30.1731V30.1966C12.7462 28.3276 11.0831 26.2581 9.61362 24.0185C9.61362 24.0185 9.59924 23.462 9.9331 23.1594C10.267 22.8568 10.8708 22.8406 12.1248 23.6331C12.4012 20.7872 14.0417 19.4904 15.1488 22.9C15.1456 22.9 16.4762 20.5423 17.1711 22.7109Z" fill="url(#paint7_linear_42_1701)"/>
<path style="mix-blend-mode:multiply" opacity="0.3" d="M12.1214 23.6366C11.3579 24.1626 10.9809 24.4346 10.2397 24.9947C9.98247 24.6111 9.85627 24.4165 9.61186 24.0221C7.56075 18.0998 6.76202 12.1524 6.81953 5.7438C7.88024 4.76216 8.79717 4.72794 9.2157 5.20345C9.9665 6.06081 9.33551 8.72474 9.61186 13.6473C9.79717 16.9453 10.7668 20.8574 12.1214 23.6366Z" fill="url(#paint8_linear_42_1701)"/>
<path style="mix-blend-mode:multiply" opacity="0.5" d="M21.0544 7.71089C18.2493 11.9707 16.6486 17.1544 17.171 22.711C17.1279 23.2028 17.1119 23.4513 17.0911 23.9466C16.3052 23.5558 15.9154 23.3451 15.1438 22.9002C14.2237 17.4967 15.0831 7.17415 18.2653 5.22528C18.802 4.89566 20.9809 7.58121 21.0512 7.70369L21.0544 7.71089Z" fill="url(#paint9_linear_42_1701)"/>
<g style="mix-blend-mode:multiply" opacity="0.5">
<path d="M6.82271 8.75551C8.18053 8.10889 9.67894 7.42444 11.0703 7.33438C12.7588 7.22631 15.0048 7.55953 16.4745 8.44031C17.0208 8.76812 19.1598 10.9403 19.1598 10.9403C19.7008 9.79657 20.3339 8.71131 21.0511 7.69823C20.2971 4.87579 19.2269 1.33108 16.8754 0.282802C13.917 -1.03565 9.07191 2.63693 6.82111 5.73134C6.76874 6.73855 6.76927 7.74837 6.82271 8.75551Z" fill="#B64800"/>
</g>
<path style="mix-blend-mode:screen" opacity="0.5" d="M6.82129 5.73664C6.83886 5.75825 12.5465 2.10728 15.3309 3.0637C17.529 3.82019 21.0513 7.70352 21.0513 7.70352C21.1184 7.66569 19.3964 1.38321 16.8756 0.288094C13.2702 -1.27712 6.82129 5.73664 6.82129 5.73664Z" fill="url(#paint10_linear_42_1701)"/>
<g style="mix-blend-mode:soft-light" opacity="0.8">
<path d="M10.195 4.66502C9.27804 6.19061 9.58954 11.7076 10.08 15.7494C10.5081 19.2941 13.5816 21.9473 14.3355 17.0805C15.3994 10.2 16.7221 6.21223 16.6375 4.58037C16.5704 3.28353 11.0576 3.23309 10.195 4.66502Z" fill="#FFEFB1"/>
</g>
<g style="mix-blend-mode:soft-light" opacity="0.2">
<path d="M17.0926 21.5617C16.9217 21.6499 15.2141 15.6304 15.5911 12.7647C15.968 9.89908 20.9808 7.19552 21.0511 7.70345C21.1486 8.40591 17.9042 13.2078 17.4537 16.3725C17.2125 18.053 17.0926 21.5617 17.0926 21.5617Z" fill="#FFEFB1"/>
</g>
<path d="M14.5752 30.1967L15.0145 30.3263C15.0145 30.3263 14.7765 29.2042 15.8005 29.5734C15.8005 29.5734 16.1679 28.4423 17.2941 29.3267L17.4043 29.2096C17.4043 29.2096 16.7653 28.5774 16.3867 28.6837C16.0081 28.7899 15.7765 29.4654 15.7765 29.4654C15.7765 29.4654 15.1903 29.2582 14.8356 29.4996C14.7344 29.572 14.6551 29.6775 14.6086 29.8021C14.5621 29.9267 14.5504 30.0644 14.5752 30.1967Z" fill="#B64800"/>
<g style="mix-blend-mode:soft-light" opacity="0.5">
<path d="M15.3083 0.230561C13.0831 1.43915 18.024 4.27059 18.6278 4.78932C20.4265 6.33833 21.0128 7.44065 21.0128 7.44065C20.1102 4.36425 18.5751 -0.277369 15.3083 0.230561Z" fill="#FFEFB1"/>
</g>
<path d="M18.9187 2.68726C18.9187 2.68726 19.5688 2.92501 19.5576 4.10118C19.5528 4.10118 18.6615 3.42574 18.9187 2.68726Z" fill="#FFEFB1"/>
<g style="mix-blend-mode:multiply" opacity="0.3">
<path d="M7.11195 12.1092C6.93464 9.81447 7.83559 5.08459 8.98735 5.74022C9.41387 5.98158 9.334 8.60048 9.34997 9.67217C9.38831 12.1812 9.49055 14.6992 9.68064 17.1777C9.7685 18.3286 9.61195 21.7256 9.29406 21.5365C8.54007 21.0772 7.35636 15.2882 7.11195 12.1092Z" fill="#FFA66A"/>
</g>
<path d="M9.79091 24.3032C9.79091 24.3032 10.6104 22.4786 12.3213 24.051C12.3213 24.051 12.6264 21.0215 13.6471 21.0269C14.6679 21.0323 15.3309 23.9844 15.3309 23.9844C15.3309 23.9844 15.7126 22.2517 16.4123 22.1022C17.112 21.9527 17.0721 23.3882 17.0721 23.3882C17.1072 23.1162 17.128 22.9811 17.1711 22.711C17.1711 22.711 16.9874 21.7203 16.4203 21.6753C15.8532 21.6303 15.1599 22.9685 15.1599 22.9685C15.1599 22.9685 14.4027 20.4001 13.4027 20.4307C12.4027 20.4613 12.1248 23.6314 12.1248 23.6314C12.1248 23.6314 10.4155 22.3705 9.85481 22.7578C9.29411 23.1451 9.61519 24.0186 9.61519 24.0186C9.68229 24.1321 9.71903 24.1897 9.79091 24.3032Z" fill="#EC8600"/>
<g style="mix-blend-mode:multiply" opacity="0.8">
<path d="M14.6086 29.8706C14.5958 29.9913 14.5894 30.0507 14.5783 30.1732V30.1966C12.746 28.3276 11.0829 26.2581 9.6134 24.0186C9.6134 24.0186 9.59743 23.462 9.93289 23.1594C10.0035 23.3783 10.057 23.6037 10.0926 23.8331C10.8323 26.1584 12.8003 28.7971 14.6086 29.8706Z" fill="#EA936A"/>
</g>
<g style="mix-blend-mode:soft-light" opacity="0.4">
<path d="M14.9986 28.8151C14.0719 27.2974 13.232 25.7146 12.4842 24.0762C12.4842 24.0762 12.3979 21.5204 13.5162 21.3637C14.6344 21.207 15.3852 24.2978 15.3852 24.2978C15.5449 25.8108 16.0896 27.7398 15.8436 28.8601C15.7414 29.3285 14.9986 28.8151 14.9986 28.8151Z" fill="#FFEFB1"/>
</g>
<g style="mix-blend-mode:multiply" opacity="0.3">
<path d="M14.3564 29.3445C14.8069 27.936 13.1216 25.0541 12.3548 24.3013C11.4858 23.4475 10.6951 23.5808 10.6951 23.5808C11.3724 25.8791 12.6216 28.1269 14.3564 29.3445Z" fill="#FFA66A"/>
</g>
<g style="mix-blend-mode:multiply" opacity="0.8">
<path d="M15.1455 22.9001C15.211 23.336 15.2477 23.5521 15.3308 23.9808C15.3308 23.9808 14.802 22.1166 14.1455 21.279C13.4889 20.4415 13.2988 20.4343 13.2988 20.4343C13.2988 20.4343 14.1934 20.2145 15.1455 22.9001Z" fill="#EA936A"/>
</g>
<g style="mix-blend-mode:soft-light" opacity="0.3">
<path d="M15.7844 29.7732C15.9026 30.1046 17.0959 31.8319 17.3579 31.8337C17.6199 31.8355 17.401 30.0326 17.2237 29.539C17.0464 29.0455 16.3467 28.779 15.7844 29.7732Z" fill="#FFDBB1"/>
</g>
<g style="mix-blend-mode:multiply" opacity="0.8">
<path d="M15.1456 30.2777C14.9219 29.2709 15.5353 29.8382 16.104 30.5083C16.4286 30.8885 16.7152 31.3076 16.9587 31.7583C16.2528 31.446 15.6289 30.9365 15.1456 30.2777Z" fill="#D1726A"/>
</g>
<g style="mix-blend-mode:soft-light">
<path d="M14.8387 20.4847C14.8387 20.4847 14.1406 19.775 14.7524 17.5308C14.7229 18.5165 14.7517 19.5033 14.8387 20.4847Z" fill="#FFEFB1"/>
</g>
<g style="mix-blend-mode:soft-light">
<path d="M17.6438 4.30664C17.6438 4.30664 17.9936 5.02711 18.123 5.12437C18.2524 5.22164 19.3195 5.55305 19.3195 5.55305C18.8101 5.05917 18.247 4.64034 17.6438 4.30664Z" fill="#FFFFDD"/>
</g>
<path d="M13.278 7.44067C13.278 7.44067 13.0128 8.03867 13.9777 8.42952C14.9425 8.82037 15.9761 8.17015 15.9761 8.17015C15.9761 8.17015 15.0128 7.67302 13.278 7.44067Z" fill="#FFFF72"/>
<path d="M10.3834 15.4882C10.3946 15.1082 11.1358 15.5891 12.2141 15.5891C13.2923 15.5891 13.6693 15.2072 14.0575 15.3838C14.4457 15.5603 13.663 18.471 12.2636 18.48C10.8642 18.489 10.3754 15.7674 10.3834 15.4882Z" fill="url(#paint11_linear_42_1701)"/>
<path d="M13.9329 15.6052C13.9089 15.7853 13.4537 15.9654 13.4537 15.9654C13.4537 15.9654 13.0479 17.0047 12.7779 17.0101C12.508 17.0155 12.2716 16.7039 12.2716 16.7039C12.2455 16.7649 12.2031 16.8152 12.1504 16.8475C12.0976 16.8798 12.0372 16.8926 11.9776 16.884C11.7492 16.8714 11.353 16.3203 11.353 16.3203C11.1818 16.2673 11.0219 16.1754 10.8834 16.0501C10.7476 15.8898 10.7236 15.4197 10.7236 15.4197C10.7236 15.4197 11.6374 15.7565 12.2029 15.7385C12.7239 15.6823 13.2396 15.5756 13.7444 15.4197C13.7444 15.4197 13.9601 15.4287 13.9329 15.6052Z" fill="url(#paint12_radial_42_1701)"/>
<path d="M10.5288 16.2825C10.5288 16.2825 11.0272 18.624 12.3355 18.615C13.6438 18.606 14.0224 16.468 14.0224 16.468C14.0224 16.468 13.2684 18.325 12.2652 18.2854C11.262 18.2457 10.5288 16.2825 10.5288 16.2825Z" fill="#FFC214"/>
<g style="mix-blend-mode:multiply">
<path d="M13.9331 15.6053C13.9091 15.7855 13.4539 15.9656 13.4539 15.9656C13.4539 15.9656 13.0481 17.0049 12.7781 17.0103C12.5082 17.0157 12.2718 16.7041 12.2718 16.7041C12.2718 16.7041 12.6519 16.9922 12.8404 16.9022C13.0289 16.8121 13.3868 15.8215 13.3868 15.8215C13.3868 15.8215 13.3868 15.6414 13.136 15.6972C12.8852 15.753 12.2158 15.8611 12.2158 15.8611V16.3222L12.1184 15.8611C12.1184 15.8611 11.3852 15.6234 11.3197 15.7188C11.2542 15.8143 11.3596 16.3222 11.3596 16.3222C11.1883 16.2693 11.0285 16.1773 10.89 16.052C10.7542 15.8917 10.7302 15.4216 10.7302 15.4216C10.7302 15.4216 11.644 15.7584 12.2095 15.7404C12.7305 15.6842 13.2462 15.5776 13.751 15.4216C13.751 15.4216 13.9603 15.4288 13.9331 15.6053Z" fill="#EA936A"/>
</g>
<path d="M15.9025 14.8381C14.5 13.489 14.853 9.39315 17.7508 9.59668C20.3243 9.7768 20.3834 12.8532 19.1885 14.6526C18.3083 15.9656 16.4089 15.3244 15.9025 14.8381Z" fill="url(#paint13_linear_42_1701)"/>
<path d="M15.4091 12.8134C15.4538 10.7781 16.8468 9.25431 18.6583 10.1621C20.5081 11.0915 19.8372 14.6956 18.0608 15.1531C16.481 15.562 15.3851 13.9265 15.4091 12.8134Z" fill="url(#paint14_radial_42_1701)"/>
<path d="M18.5529 13.1484C18.5159 13.43 18.4058 13.693 18.2364 13.9042C18.067 14.1153 17.846 14.2651 17.6011 14.3347C17.3563 14.4043 17.0987 14.3906 16.8607 14.2953C16.6228 14.1999 16.4153 14.0272 16.2643 13.799C16.1133 13.5708 16.0257 13.2973 16.0125 13.013C15.9993 12.7287 16.061 12.4463 16.19 12.2015C16.319 11.9568 16.5094 11.7606 16.7371 11.6377C16.9649 11.5148 17.2199 11.4708 17.4698 11.5111C17.6365 11.538 17.7967 11.6018 17.9414 11.6987C18.0861 11.7957 18.2124 11.9239 18.3131 12.076C18.4137 12.2281 18.4867 12.4012 18.5279 12.5852C18.569 12.7693 18.5775 12.9606 18.5529 13.1484Z" fill="url(#paint15_linear_42_1701)"/>
<g style="mix-blend-mode:multiply" opacity="0.5">
<path d="M18.1791 13.0874C18.1445 13.3546 18.0172 13.5955 17.8252 13.757C17.6332 13.9184 17.3921 13.9873 17.1551 13.9483C16.9181 13.9094 16.7044 13.7659 16.5612 13.5494C16.418 13.3328 16.357 13.0611 16.3915 12.7938C16.3991 12.7369 16.4108 12.6809 16.4267 12.6263C16.4934 12.3965 16.6306 12.2011 16.8136 12.0752C16.9967 11.9493 17.2135 11.9011 17.4252 11.9393C17.637 11.9775 17.8297 12.0996 17.9687 12.2836C18.1078 12.4676 18.184 12.7015 18.1838 12.9433C18.1854 12.9914 18.1838 13.0395 18.1791 13.0874Z" fill="#AB2C51"/>
</g>
<g style="mix-blend-mode:multiply" opacity="0.5">
<path d="M18.1791 13.0873C18.1445 13.3546 18.0172 13.5955 17.8252 13.7569C17.6332 13.9184 17.3921 13.9872 17.1551 13.9483C16.9181 13.9093 16.7044 13.7658 16.5612 13.5493C16.418 13.3328 16.357 13.061 16.3915 12.7937C16.3991 12.7369 16.4108 12.6809 16.4267 12.6262C16.4267 12.6262 16.243 13.7465 17.2046 13.8528C17.3236 13.8778 17.446 13.8731 17.5632 13.8391C17.6804 13.805 17.7896 13.7425 17.8831 13.6558C17.9765 13.5691 18.052 13.4604 18.1043 13.3373C18.1565 13.2142 18.1842 13.0797 18.1854 12.9432C18.1865 12.9914 18.1843 13.0395 18.1791 13.0873Z" fill="#AB2C51"/>
</g>
<g style="mix-blend-mode:soft-light" opacity="0.5">
<path d="M16.4539 13.9103C16.6136 13.7302 16.9906 14.0436 17.3564 13.9806C17.7222 13.9175 17.8548 14.1391 17.8548 14.1391C17.8548 14.1391 17.2462 14.7569 16.4539 13.9103Z" fill="#FFEFB1"/>
</g>
<path d="M18.7174 13.2817C18.7072 13.3621 18.676 13.4373 18.6279 13.4978C18.5798 13.5582 18.5168 13.6012 18.447 13.6213C18.3772 13.6414 18.3036 13.6377 18.2357 13.6107C18.1677 13.5836 18.1084 13.5345 18.0652 13.4694C18.0221 13.4043 17.997 13.3263 17.9932 13.2452C17.9894 13.164 18.007 13.0835 18.0438 13.0136C18.0806 12.9438 18.135 12.8878 18.2 12.8528C18.265 12.8178 18.3378 12.8053 18.4091 12.817C18.5044 12.833 18.5903 12.8908 18.648 12.9779C18.7057 13.0649 18.7307 13.1741 18.7174 13.2817Z" fill="white"/>
<path d="M17.0992 11.9741C17.0955 12.0029 17.0843 12.0299 17.067 12.0516C17.0498 12.0733 17.0272 12.0887 17.0021 12.096C16.977 12.1032 16.9506 12.1019 16.9262 12.0922C16.9018 12.0826 16.8805 12.065 16.865 12.0417C16.8494 12.0184 16.8403 11.9904 16.8388 11.9613C16.8374 11.9322 16.8436 11.9032 16.8567 11.8781C16.8698 11.8529 16.8892 11.8327 16.9124 11.82C16.9357 11.8073 16.9618 11.8026 16.9874 11.8065C17.0046 11.8092 17.021 11.8156 17.0359 11.8255C17.0509 11.8354 17.0639 11.8485 17.0743 11.864C17.0847 11.8796 17.0922 11.8974 17.0965 11.9162C17.1008 11.9351 17.1017 11.9548 17.0992 11.9741Z" fill="white"/>
<g style="mix-blend-mode:soft-light">
<path d="M15.7412 14.6147C16.2107 14.9422 16.74 15.1454 17.2891 15.2091C17.7895 15.2675 18.295 15.1878 18.762 14.9768C18.762 14.9768 18.4425 15.5478 17.3019 15.4343C16.1613 15.3208 15.7412 14.6147 15.7412 14.6147Z" fill="#FFEFB1"/>
</g>
<path d="M15.77 11.2087C15.77 11.2087 16.409 9.58763 17.9505 9.72451C18.3756 9.74835 18.7839 9.91887 19.1202 10.213C19.4565 10.5071 19.7045 10.9107 19.8307 11.369C19.8307 11.369 17.4681 9.94786 15.77 11.2087Z" fill="url(#paint16_linear_42_1701)"/>
<path d="M15.77 11.2086C15.77 11.2086 16.8435 10.1117 18.6454 10.5908C19.3147 10.771 19.8483 11.2177 20.0176 11.5203C20.4058 12.2119 19.7173 12.9 19.7173 12.9C19.7173 12.9 20.1614 11.477 18.4921 10.9385C16.6854 10.3585 15.77 11.2086 15.77 11.2086Z" fill="url(#paint17_linear_42_1701)"/>
<path d="M15.3308 13.9104C15.3308 13.9104 18.5497 14.8254 19.695 13.5952C19.695 13.5952 18.4969 16.4339 17.0992 16.7977C15.7014 17.1615 15.3308 13.9104 15.3308 13.9104Z" fill="url(#paint18_linear_42_1701)"/>
<path d="M15.3308 13.9103L15.2429 13.6329C15.2429 13.6329 18.1918 14.6182 19.6087 13.3447L19.695 13.5951C19.695 13.5951 19.1071 14.8793 15.3308 13.9103Z" fill="#FFB840"/>
<path d="M8.93939 14.8379C10.2892 13.4889 10.3084 9.26332 7.52086 9.46866C5.04641 9.64877 4.62948 12.8531 5.78603 14.6524C6.62948 15.9655 8.45216 15.3243 8.93939 14.8379Z" fill="url(#paint19_linear_42_1701)"/>
<path d="M9.41389 12.8134C9.37076 10.7781 8.02731 9.25431 6.28929 10.1621C4.50974 11.0915 5.1551 14.6956 6.86277 15.1531C8.38354 15.562 9.43625 13.9265 9.41389 12.8134Z" fill="url(#paint20_radial_42_1701)"/>
<path d="M6.74932 13.1485C6.76882 13.3327 6.82061 13.5107 6.90167 13.6722C6.98274 13.8336 7.09147 13.9753 7.22154 14.0889C7.3516 14.2026 7.50041 14.2859 7.6593 14.3341C7.8182 14.3823 7.984 14.3944 8.14708 14.3697C8.476 14.3044 8.76918 14.0964 8.96384 13.7904C9.1585 13.4844 9.23918 13.1047 9.18861 12.7324C9.16931 12.5483 9.1177 12.3703 9.0368 12.2089C8.9559 12.0474 8.84731 11.9058 8.71737 11.7921C8.58744 11.6785 8.43874 11.5951 8.27994 11.5469C8.12115 11.4987 7.95543 11.4865 7.79245 11.5112C7.46323 11.5761 7.16967 11.7839 6.97467 12.0899C6.77968 12.396 6.69878 12.776 6.74932 13.1485Z" fill="url(#paint21_linear_42_1701)"/>
<g style="mix-blend-mode:multiply" opacity="0.5">
<path d="M7.11041 13.0872C7.124 13.217 7.16037 13.3424 7.21738 13.4562C7.27439 13.57 7.35092 13.6699 7.4425 13.75C7.53408 13.8302 7.63889 13.8889 7.75081 13.9229C7.86274 13.957 7.97955 13.9655 8.09444 13.9481C8.32686 13.9031 8.53424 13.7567 8.67174 13.5407C8.80924 13.3246 8.86582 13.0563 8.82926 12.7936C8.82171 12.7367 8.80995 12.6807 8.79412 12.6261C8.73633 12.3989 8.60718 12.2033 8.4308 12.0757C8.25441 11.9481 8.04286 11.8972 7.83565 11.9326C7.62514 11.9728 7.43444 12.0969 7.29837 12.2824C7.1623 12.4679 7.08992 12.7024 7.09444 12.9431C7.0958 12.9916 7.10114 13.0398 7.11041 13.0872Z" fill="#AB2C51"/>
</g>
<g style="mix-blend-mode:multiply" opacity="0.5">
<path d="M7.11035 13.0873C7.12394 13.2171 7.1603 13.3426 7.21732 13.4564C7.27433 13.5702 7.35086 13.6701 7.44244 13.7502C7.53402 13.8303 7.63882 13.8891 7.75075 13.9231C7.86268 13.9571 7.97948 13.9657 8.09437 13.9483C8.3268 13.9032 8.53417 13.7569 8.67167 13.5408C8.80917 13.3248 8.86576 13.0564 8.8292 12.7937C8.82164 12.7369 8.80989 12.6809 8.79405 12.6262C8.79405 12.6262 8.97297 13.7465 8.04645 13.8528C7.21099 13.9519 7.11354 13.1071 7.10236 12.9432C7.10108 12.9914 7.10376 13.0397 7.11035 13.0873Z" fill="#AB2C51"/>
</g>
<g style="mix-blend-mode:soft-light" opacity="0.5">
<path d="M8.76852 13.9103C8.62315 13.7302 8.25255 14.0436 7.90111 13.9806C7.54967 13.9175 7.42188 14.1391 7.42188 14.1391C7.42188 14.1391 8.00654 14.7569 8.76852 13.9103Z" fill="#FFEFB1"/>
</g>
<path d="M6.59275 13.2818C6.59827 13.334 6.61293 13.3846 6.63589 13.4304C6.65884 13.4762 6.68964 13.5165 6.72648 13.5488C6.76332 13.5811 6.80549 13.6049 6.85054 13.6187C6.89558 13.6326 6.94262 13.6362 6.98891 13.6294C7.08307 13.6117 7.1672 13.5527 7.22288 13.4653C7.27856 13.3779 7.30127 13.2691 7.28604 13.1629C7.28052 13.1107 7.26585 13.0602 7.24287 13.0145C7.2199 12.9687 7.18907 12.9286 7.1522 12.8964C7.11533 12.8642 7.07315 12.8406 7.02811 12.827C6.98307 12.8134 6.93608 12.81 6.88987 12.8171C6.79583 12.8343 6.71172 12.8929 6.656 12.9801C6.60029 13.0672 6.57754 13.1757 6.59275 13.2818Z" fill="white"/>
<path d="M8.14878 11.974C8.15073 11.993 8.15604 12.0113 8.16438 12.0278C8.17273 12.0444 8.18393 12.0589 8.19734 12.0705C8.21075 12.0821 8.22608 12.0905 8.24244 12.0953C8.25879 12.1001 8.27583 12.1011 8.29255 12.0983C8.31001 12.0962 8.3269 12.09 8.34215 12.0802C8.3574 12.0703 8.37068 12.057 8.38118 12.0411C8.39167 12.0253 8.39915 12.0071 8.40314 11.9878C8.40713 11.9685 8.40755 11.9485 8.40437 11.929C8.40261 11.9102 8.39749 11.8919 8.38931 11.8754C8.38114 11.8588 8.37008 11.8443 8.35679 11.8327C8.34351 11.8211 8.32828 11.8126 8.31203 11.8078C8.29577 11.803 8.27882 11.802 8.26219 11.8047C8.24477 11.8072 8.22796 11.8135 8.21275 11.8234C8.19755 11.8333 8.18426 11.8465 8.17368 11.8623C8.1631 11.8781 8.15545 11.8961 8.15117 11.9153C8.14689 11.9345 8.14608 11.9545 8.14878 11.974Z" fill="white"/>
<g style="mix-blend-mode:soft-light">
<path d="M9.09447 14.6147C8.64589 14.9406 8.13614 15.1441 7.60565 15.2091C7.12353 15.2672 6.63621 15.1873 6.18872 14.9768C6.18872 14.9768 6.49383 15.5478 7.59447 15.4343C8.69511 15.3208 9.09447 14.6147 9.09447 14.6147Z" fill="#FFEFB1"/>
</g>
<path d="M9.06553 11.2087C9.06553 11.2087 8.45051 9.58763 6.96968 9.72451C6.55471 9.75596 6.15844 9.9309 5.83484 10.2255C5.51125 10.5201 5.27608 10.92 5.16138 11.3708C5.16138 11.3708 7.43294 9.94786 9.06553 11.2087Z" fill="url(#paint22_linear_42_1701)"/>
<path d="M9.06569 11.2086C9.06569 11.2086 8.03374 10.1117 6.3069 10.5908C5.66792 10.771 5.15035 11.2177 4.98741 11.5203C4.61521 12.2119 5.27655 12.9 5.27655 12.9C5.27655 12.9 4.84843 11.477 6.45546 10.9385C8.18709 10.3585 9.06569 11.2086 9.06569 11.2086Z" fill="url(#paint23_linear_42_1701)"/>
<path d="M9.49056 13.9104C9.49056 13.9104 6.39312 14.8254 5.29248 13.5952C5.29248 13.5952 6.44424 16.4339 7.78769 16.7977C9.13114 17.1615 9.49056 13.9104 9.49056 13.9104Z" fill="url(#paint24_linear_42_1701)"/>
<path d="M9.49056 13.9103L9.57363 13.6329C9.57363 13.6329 6.73817 14.6182 5.37555 13.3447L5.29248 13.5951C5.29248 13.5951 5.85638 14.8793 9.49056 13.9103Z" fill="#FFB840"/>
<path d="M13.7909 16.9473C13.7909 16.9473 13.4299 17.8352 12.7142 18.0712H12.6935C12.5934 18.1016 12.4904 18.1179 12.3867 18.1198H12.3276C12.1031 18.1115 11.8838 18.0417 11.6887 17.9163H11.6775C11.321 17.6695 11.028 17.3217 10.8276 16.9076C10.9495 16.8749 11.0764 16.8749 11.1982 16.9076C11.2367 16.9336 11.2691 16.9695 11.2927 17.0125C11.3163 17.0554 11.3305 17.104 11.334 17.1544C11.3961 17.132 11.4597 17.1151 11.5241 17.104C11.5912 17.095 12.8931 17.0769 13.0145 17.095C13.0351 17.0979 13.055 17.1046 13.0736 17.1148C13.1315 17.1443 13.1816 17.1902 13.219 17.2481C13.2182 17.2307 13.2182 17.2132 13.219 17.1958C13.219 17.0986 13.243 16.9076 13.2765 16.8842C13.3836 16.8757 13.4912 16.8848 13.596 16.9112C13.6966 16.9274 13.7909 16.9473 13.7909 16.9473Z" fill="url(#paint25_radial_42_1701)"/>
<g style="mix-blend-mode:multiply">
<path d="M11.668 17.918C11.3114 17.6712 11.0184 17.3234 10.8181 16.9093C10.9399 16.8766 11.0669 16.8766 11.1887 16.9093C11.2272 16.9353 11.2595 16.9712 11.2831 17.0142C11.3068 17.0571 11.3209 17.1057 11.3245 17.1561C11.2542 17.293 11.668 17.918 11.668 17.918Z" fill="#EA936A"/>
</g>
<g style="mix-blend-mode:multiply">
<path d="M11.6726 17.9199C11.898 18.0358 12.1397 18.1059 12.3867 18.1271H12.3276C12.0975 18.1195 11.8726 18.0484 11.6726 17.9199Z" fill="#EA936A"/>
</g>
<g style="mix-blend-mode:multiply">
<path d="M13.7908 16.9472C13.7908 16.9472 13.4298 17.8352 12.7141 18.0712C13.1103 17.8821 13.064 17.1166 13.064 17.1166C13.1218 17.1461 13.1719 17.192 13.2093 17.2498C13.2085 17.2324 13.2085 17.215 13.2093 17.1976C13.2093 17.2336 13.2205 17.2715 13.2285 17.3093C13.2812 17.5741 13.4777 17.4029 13.4777 17.4029C13.4777 17.4029 13.6486 17.0427 13.5831 16.9094C13.6965 16.9274 13.7908 16.9472 13.7908 16.9472Z" fill="#EA936A"/>
</g>
<path d="M16.8372 6.88591C16.8372 6.88591 18.3995 5.62509 19.326 8.5556C19.326 8.5556 18.3851 7.0246 16.8372 6.88591Z" fill="url(#paint26_linear_42_1701)"/>
<path d="M9.39141 6.03386C9.39141 6.03386 7.8307 4.77304 6.90259 7.70355C6.90259 7.70355 7.84348 6.16535 9.39141 6.03386Z" fill="url(#paint27_linear_42_1701)"/>
<g style="mix-blend-mode:multiply" opacity="0.8">
<path d="M17.1903 19.4473C17.104 18.145 21.3069 14.9101 22.4618 14.105C23.6168 13.2999 22.3756 16.2448 21.0114 17.3993C19.6471 18.5539 17.1903 19.4473 17.1903 19.4473Z" fill="#E0906A"/>
</g>
<g style="mix-blend-mode:multiply" opacity="0.8">
<path d="M4.42348 16.7077C2.43147 15.2001 2.60879 15.0542 2.60879 15.0542C2.60879 15.0542 6.21262 16.4105 7.08962 17.0193C7.96661 17.6281 7.96981 18.5323 7.96981 18.5323C7.96981 18.5323 5.81645 17.7614 4.42348 16.7077Z" fill="#E0906A"/>
</g>
<path d="M9.75558 33.2063C12.1517 33.327 14.5479 33.2982 16.9441 33.2549L18.7412 33.2243H19.6406C19.7907 33.2243 19.9409 33.2243 20.091 33.2333C20.1661 33.2333 20.2428 33.2333 20.3195 33.2477C20.3598 33.2518 20.3998 33.259 20.4393 33.2693C20.4525 33.2732 20.4654 33.2787 20.4776 33.2856C20.4888 33.2922 20.499 33.3007 20.508 33.3108C20.5166 33.3231 20.5219 33.338 20.5233 33.3536C20.5247 33.3692 20.5222 33.385 20.516 33.399C20.5062 33.421 20.4897 33.4382 20.4696 33.4477L20.4377 33.4657C20.2913 33.5178 20.1419 33.5581 19.9904 33.5863C19.8418 33.6188 19.6933 33.6476 19.5463 33.6746C19.2492 33.7286 18.9521 33.7773 18.6549 33.8241C18.0607 33.9154 17.4659 33.9994 16.8706 34.0763C14.4872 34.3807 12.1022 34.6364 9.70606 34.7967C9.10542 34.8328 8.50798 34.8688 7.89935 34.858C7.73853 34.8588 7.57802 34.8419 7.42012 34.8075C7.39158 34.7982 7.36379 34.7861 7.33705 34.7715L7.3051 34.7463C7.29002 34.7312 7.27709 34.7136 7.26676 34.6941C7.25274 34.6667 7.24536 34.6356 7.24536 34.604C7.24536 34.5724 7.25274 34.5413 7.26676 34.514C7.28871 34.4734 7.31951 34.4399 7.35622 34.4167L7.41852 34.3789C7.49309 34.343 7.56935 34.3117 7.64696 34.2852C7.94248 34.1843 8.23641 34.1051 8.53194 34.0402C9.71394 33.7798 10.9081 33.5952 12.1086 33.4873C14.5051 33.2459 16.9137 33.1972 19.3163 33.3414C20.5243 33.4087 21.7261 33.5766 22.9121 33.8439C23.2093 33.916 23.5048 33.9994 23.7987 34.0943C23.8812 34.1196 23.9619 34.1521 24.0399 34.1915C24.0891 34.2149 24.1357 34.2445 24.1789 34.2798C24.2097 34.3052 24.2377 34.3348 24.262 34.3681C24.3 34.4196 24.3248 34.4819 24.3339 34.5482C24.3413 34.6237 24.3273 34.7 24.2939 34.7661C24.2725 34.8087 24.2449 34.8471 24.2125 34.8796C24.1708 34.9214 24.1246 34.9571 24.0751 34.9859C23.9978 35.0326 23.9171 35.0718 23.8339 35.1029C23.5374 35.2099 23.2348 35.2935 22.9281 35.3533C22.6278 35.4145 22.3291 35.4668 22.0287 35.5136C20.8307 35.6937 19.6326 35.7982 18.4297 35.8738C17.2268 35.9495 16.0335 35.9873 14.8243 35.9927C12.4117 36.0264 9.99994 35.8759 7.60542 35.5424C7.56347 35.5361 7.52302 35.5206 7.48638 35.4967C7.44975 35.4728 7.41764 35.441 7.39191 35.4032C7.36617 35.3653 7.3473 35.322 7.33638 35.2759C7.32546 35.2298 7.32271 35.1818 7.32826 35.1344C7.33382 35.0871 7.34759 35.0415 7.36878 35.0002C7.38998 34.9589 7.41818 34.9227 7.45177 34.8937C7.48537 34.8647 7.52371 34.8434 7.5646 34.8311C7.60549 34.8188 7.64813 34.8157 7.69009 34.8219C10.0515 35.1825 12.4317 35.363 14.8147 35.3623C16.0074 35.3719 17.2007 35.3473 18.3946 35.2885C19.5863 35.2272 20.7779 35.1372 21.9569 34.9732C22.2508 34.9318 22.5447 34.885 22.8339 34.8292C23.1182 34.7784 23.399 34.7049 23.6741 34.6094C23.7338 34.5877 23.7919 34.5612 23.8482 34.5302C23.8649 34.5201 23.881 34.5087 23.8962 34.4959C23.8962 34.4959 23.8962 34.4959 23.885 34.5121C23.8723 34.5424 23.8673 34.5761 23.8706 34.6094C23.8726 34.6363 23.8814 34.662 23.8962 34.6833C23.8777 34.6698 23.8585 34.6578 23.8386 34.6472C23.7801 34.6179 23.7198 34.5932 23.6581 34.5734C23.377 34.4797 23.0926 34.3957 22.8051 34.3212C21.6427 34.044 20.4638 33.8633 19.2779 33.7809C16.8948 33.608 14.5038 33.626 12.123 33.8349C10.9336 33.929 9.74972 34.0968 8.57667 34.3374C8.28593 34.4041 7.9936 34.4743 7.71565 34.5644C7.64952 34.5863 7.58447 34.6122 7.52076 34.6418L7.48402 34.6634C7.48402 34.6634 7.46964 34.6815 7.48402 34.649C7.49282 34.6305 7.49743 34.6097 7.49743 34.5887C7.49743 34.5676 7.49282 34.5469 7.48402 34.5284C7.47873 34.5179 7.47167 34.5087 7.46325 34.5013C7.46959 34.5058 7.47664 34.5089 7.48402 34.5103C7.62098 34.5394 7.75999 34.5545 7.89935 34.5554C8.48881 34.5752 9.08945 34.5464 9.68529 34.5176C12.0815 34.3861 14.4632 34.1573 16.845 33.8871C17.4414 33.8163 18.0362 33.7394 18.6294 33.6566C18.9249 33.6152 19.222 33.5701 19.5176 33.5197C19.6645 33.4945 19.8131 33.4675 19.9585 33.4387C20.1028 33.4136 20.2453 33.3769 20.385 33.3288C20.3918 33.3272 20.3983 33.3242 20.4041 33.3198C20.4041 33.3198 20.4137 33.309 20.4041 33.3288C20.3946 33.3486 20.4041 33.3792 20.4041 33.3882C20.4041 33.3972 20.4137 33.3972 20.4041 33.3882H20.3898C20.3566 33.3799 20.323 33.3739 20.2891 33.3702C20.2172 33.3612 20.1422 33.3558 20.0687 33.3522C19.9201 33.3522 19.7716 33.3414 19.6214 33.3378H18.7236L16.9265 33.3486C14.5463 33.363 12.1486 33.363 9.75558 33.2063Z" fill="url(#paint28_linear_42_1701)"/>
<defs>
<linearGradient id="paint0_linear_42_1701" x1="21.2354" y1="19.4356" x2="21.4806" y2="10.9528" gradientUnits="userSpaceOnUse">
<stop stop-color="#E06600"/>
<stop offset="1" stop-color="#D84000"/>
</linearGradient>
<linearGradient id="paint1_linear_42_1701" x1="21.3212" y1="17.4771" x2="21.5098" y2="10.9517" gradientUnits="userSpaceOnUse">
<stop stop-color="#FFB000"/>
<stop offset="1" stop-color="#FF8D14"/>
</linearGradient>
<linearGradient id="paint2_linear_42_1701" x1="7.9717" y1="20.5826" x2="3.15552" y2="11.5341" gradientUnits="userSpaceOnUse">
<stop stop-color="#E06600"/>
<stop offset="1" stop-color="#D84000"/>
</linearGradient>
<linearGradient id="paint3_linear_42_1701" x1="5.98637" y1="18.6377" x2="2.36143" y2="11.8272" gradientUnits="userSpaceOnUse">
<stop stop-color="#FFB000"/>
<stop offset="1" stop-color="#FF8D14"/>
</linearGradient>
<linearGradient id="paint4_linear_42_1701" x1="13.9361" y1="30.1966" x2="13.9361" y2="-3.85582e-05" gradientUnits="userSpaceOnUse">
<stop stop-color="#FFC931"/>
<stop offset="0.3" stop-color="#FFB000"/>
<stop offset="1" stop-color="#FF8D14"/>
</linearGradient>
<linearGradient id="paint5_linear_42_1701" x1="16.088" y1="32.0051" x2="16.088" y2="28.5144" gradientUnits="userSpaceOnUse">
<stop offset="0.01" stop-color="#8B4036"/>
<stop offset="0.22" stop-color="#843D37"/>
<stop offset="0.54" stop-color="#6F363A"/>
<stop offset="0.93" stop-color="#4E293F"/>
<stop offset="0.99" stop-color="#482740"/>
</linearGradient>
<radialGradient id="paint6_radial_42_1701" cx="0" cy="0" r="1" gradientUnits="userSpaceOnUse" gradientTransform="translate(12.2653 8.5212) scale(6.56479 8.13409)">
<stop offset="0.03" stop-color="#FFE431"/>
<stop offset="0.34" stop-color="#FFD62E"/>
<stop offset="0.73" stop-color="#EC7528"/>
<stop offset="0.95" stop-color="#FDD63A"/>
<stop offset="1" stop-color="#FC7D25"/>
</radialGradient>
<linearGradient id="paint7_linear_42_1701" x1="13.5082" y1="30.1966" x2="13.5082" y2="20.8575" gradientUnits="userSpaceOnUse">
<stop stop-color="#D86B74"/>
<stop offset="0.93" stop-color="#DD4B00"/>
</linearGradient>
<linearGradient id="paint8_linear_42_1701" x1="9.46809" y1="24.9893" x2="9.46809" y2="4.89725" gradientUnits="userSpaceOnUse">
<stop stop-color="white"/>
<stop offset="0.99" stop-color="#F36881"/>
</linearGradient>
<linearGradient id="paint9_linear_42_1701" x1="17.925" y1="23.9466" x2="17.925" y2="5.19826" gradientUnits="userSpaceOnUse">
<stop stop-color="white"/>
<stop offset="0.99" stop-color="#F36881"/>
</linearGradient>
<linearGradient id="paint10_linear_42_1701" x1="13.9379" y1="7.70352" x2="13.9379" y2="0.0611473" gradientUnits="userSpaceOnUse">
<stop offset="0.01"/>
<stop offset="0.04" stop-color="#080400"/>
<stop offset="0.25" stop-color="#502A01"/>
<stop offset="0.44" stop-color="#8C4902"/>
<stop offset="0.62" stop-color="#BB6203"/>
<stop offset="0.78" stop-color="#DD7304"/>
<stop offset="0.91" stop-color="#F27E04"/>
<stop offset="0.99" stop-color="#F98204"/>
</linearGradient>
<linearGradient id="paint11_linear_42_1701" x1="12.27" y1="18.48" x2="12.27" y2="15.3369" gradientUnits="userSpaceOnUse">
<stop offset="0.04" stop-color="#C42513"/>
<stop offset="0.19" stop-color="#BC2414"/>
<stop offset="0.44" stop-color="#A62216"/>
<stop offset="0.74" stop-color="#831E19"/>
<stop offset="1" stop-color="#5E1A1D"/>
</linearGradient>
<radialGradient id="paint12_radial_42_1701" cx="0" cy="0" r="1" gradientUnits="userSpaceOnUse" gradientTransform="translate(12.3275 15.954) scale(1.21885 1.56669)">
<stop stop-color="white"/>
<stop offset="0.47" stop-color="#FFFDFD"/>
<stop offset="0.69" stop-color="#FDF6F5"/>
<stop offset="0.86" stop-color="#FBEAE9"/>
<stop offset="1" stop-color="#F8D9D6"/>
</radialGradient>
<linearGradient id="paint13_linear_42_1701" x1="16.8045" y1="15.5162" x2="18.4291" y2="9.92736" gradientUnits="userSpaceOnUse">
<stop offset="0.01" stop-color="#FFB000"/>
<stop offset="0.49" stop-color="#F97A00"/>
<stop offset="1" stop-color="#CE2A14"/>
</linearGradient>
<radialGradient id="paint14_radial_42_1701" cx="0" cy="0" r="1" gradientUnits="userSpaceOnUse" gradientTransform="translate(17.1884 11.9817) rotate(16.1387) scale(2.08963 2.85207)">
<stop stop-color="white"/>
<stop offset="0.41" stop-color="#FEFDFD"/>
<stop offset="0.61" stop-color="#FCF6F5"/>
<stop offset="0.75" stop-color="#F9EAE9"/>
<stop offset="0.87" stop-color="#F4D9D6"/>
<stop offset="0.98" stop-color="#EDC4BF"/>
<stop offset="0.99" stop-color="#ECC0BB"/>
</radialGradient>
<linearGradient id="paint15_linear_42_1701" x1="17.1043" y1="14.3684" x2="17.5706" y2="11.5236" gradientUnits="userSpaceOnUse">
<stop offset="0.07" stop-color="#F4A400"/>
<stop offset="0.96" stop-color="#9A3100"/>
</linearGradient>
<linearGradient id="paint16_linear_42_1701" x1="17.8004" y1="11.3708" x2="17.8004" y2="9.71731" gradientUnits="userSpaceOnUse">
<stop stop-color="#FF8D14"/>
<stop offset="1" stop-color="#FFB000"/>
</linearGradient>
<linearGradient id="paint17_linear_42_1701" x1="18.0436" y1="12.2705" x2="18.3762" y2="10.1844" gradientUnits="userSpaceOnUse">
<stop stop-color="#5E1A1D"/>
<stop offset="0.31" stop-color="#720F19"/>
<stop offset="0.72" stop-color="#860415"/>
<stop offset="1" stop-color="#8D0013"/>
</linearGradient>
<linearGradient id="paint18_linear_42_1701" x1="17.5129" y1="16.8265" x2="17.5129" y2="13.5952" gradientUnits="userSpaceOnUse">
<stop stop-color="#FF8D14"/>
<stop offset="1" stop-color="#FFB000"/>
</linearGradient>
<linearGradient id="paint19_linear_42_1701" x1="8.27515" y1="15.4247" x2="6.64803" y2="9.82731" gradientUnits="userSpaceOnUse">
<stop offset="0.01" stop-color="#FFB000"/>
<stop offset="0.49" stop-color="#F97A00"/>
<stop offset="1" stop-color="#CE2A14"/>
</linearGradient>
<radialGradient id="paint20_radial_42_1701" cx="0" cy="0" r="1" gradientUnits="userSpaceOnUse" gradientTransform="translate(7.26782 11.9551) rotate(163.302) scale(2.02148 2.84017)">
<stop stop-color="white"/>
<stop offset="0.41" stop-color="#FEFDFD"/>
<stop offset="0.61" stop-color="#FCF6F5"/>
<stop offset="0.75" stop-color="#F9EAE9"/>
<stop offset="0.87" stop-color="#F4D9D6"/>
<stop offset="0.98" stop-color="#EDC4BF"/>
<stop offset="0.99" stop-color="#ECC0BB"/>
</radialGradient>
<linearGradient id="paint21_linear_42_1701" x1="7.92027" y1="14.3593" x2="7.46692" y2="11.516" gradientUnits="userSpaceOnUse">
<stop offset="0.07" stop-color="#F4A400"/>
<stop offset="0.96" stop-color="#9A3100"/>
</linearGradient>
<linearGradient id="paint22_linear_42_1701" x1="7.11505" y1="11.3708" x2="7.11505" y2="9.71731" gradientUnits="userSpaceOnUse">
<stop stop-color="#FF8D14"/>
<stop offset="1" stop-color="#FFB000"/>
</linearGradient>
<linearGradient id="paint23_linear_42_1701" x1="6.87327" y1="12.3296" x2="6.53924" y2="10.2346" gradientUnits="userSpaceOnUse">
<stop stop-color="#5E1A1D"/>
<stop offset="0.31" stop-color="#720F19"/>
<stop offset="0.72" stop-color="#860415"/>
<stop offset="1" stop-color="#8D0013"/>
</linearGradient>
<linearGradient id="paint24_linear_42_1701" x1="7.39152" y1="16.8265" x2="7.39152" y2="13.5952" gradientUnits="userSpaceOnUse">
<stop stop-color="#FF8D14"/>
<stop offset="1" stop-color="#FFB000"/>
</linearGradient>
<radialGradient id="paint25_radial_42_1701" cx="0" cy="0" r="1" gradientUnits="userSpaceOnUse" gradientTransform="translate(12.3037 17.502) scale(1.12141 1.26442)">
<stop stop-color="white"/>
<stop offset="0.47" stop-color="#FFFDFD"/>
<stop offset="0.69" stop-color="#FDF6F5"/>
<stop offset="0.86" stop-color="#FBEAE9"/>
<stop offset="1" stop-color="#F8D9D6"/>
</radialGradient>
<linearGradient id="paint26_linear_42_1701" x1="18.0816" y1="8.5556" x2="18.0816" y2="6.61394" gradientUnits="userSpaceOnUse">
<stop stop-color="#5E1A1D"/>
<stop offset="0.31" stop-color="#720F19"/>
<stop offset="0.72" stop-color="#860415"/>
<stop offset="1" stop-color="#8D0013"/>
</linearGradient>
<linearGradient id="paint27_linear_42_1701" x1="8.147" y1="7.70355" x2="8.147" y2="5.76189" gradientUnits="userSpaceOnUse">
<stop stop-color="#5E1A1D"/>
<stop offset="0.31" stop-color="#720F19"/>
<stop offset="0.72" stop-color="#860415"/>
<stop offset="1" stop-color="#8D0013"/>
</linearGradient>
<linearGradient id="paint28_linear_42_1701" x1="15.7907" y1="36.0431" x2="15.7907" y2="32.8461" gradientUnits="userSpaceOnUse">
<stop offset="0.01" stop-color="#482740"/>
<stop offset="0.24" stop-color="#775969"/>
<stop offset="0.48" stop-color="#A2878F"/>
<stop offset="0.7" stop-color="#C2A9AB"/>
<stop offset="0.88" stop-color="#D5BEBC"/>
<stop offset="0.99" stop-color="#DCC5C2"/>
</linearGradient>
</defs>
</svg>
