<svg width="30" height="26" viewBox="0 0 30 26" fill="none" xmlns="http://www.w3.org/2000/svg">
<g clip-path="url(#clip0_51_3539)">
<path d="M29.6807 24.3784C28.0485 23.6678 26.6351 22.5366 25.5854 21.1007C26.703 20.0614 27.5974 18.8062 28.2143 17.4113C28.8312 16.0163 29.1577 14.5108 29.174 12.9861C29.174 6.25048 22.8228 0.789917 14.9861 0.789917C7.14948 0.789917 0.805176 6.25048 0.805176 12.9861C0.805176 19.7217 7.15642 25.1822 14.9861 25.1822C17.0599 25.1857 19.1149 24.7904 21.0389 24.0181C22.3611 24.7191 23.8243 25.1143 25.3203 25.1743C26.8162 25.2342 28.3064 24.9575 29.6807 24.3646" stroke="white" stroke-width="2.31" stroke-miterlimit="10"/>
<path d="M16.86 13.395C16.86 13.7075 16.7672 14.013 16.5933 14.2728C16.4194 14.5326 16.1722 14.7351 15.8831 14.8547C15.5939 14.9743 15.2757 15.0056 14.9687 14.9446C14.6617 14.8837 14.3797 14.7332 14.1583 14.5122C13.937 14.2913 13.7863 14.0097 13.7252 13.7033C13.6642 13.3968 13.6955 13.0791 13.8153 12.7904C13.9351 12.5017 14.1379 12.2549 14.3982 12.0813C14.6584 11.9077 14.9644 11.8151 15.2774 11.8151C15.6971 11.8151 16.0997 11.9815 16.3965 12.2778C16.6933 12.5741 16.86 12.976 16.86 13.395Z" fill="white"/>
<path d="M9.49569 14.975C10.3697 14.975 11.0783 14.2676 11.0783 13.395C11.0783 12.5224 10.3697 11.8151 9.49569 11.8151C8.62164 11.8151 7.91309 12.5224 7.91309 13.395C7.91309 14.2676 8.62164 14.975 9.49569 14.975Z" fill="white"/>
<path d="M22.6564 13.395C22.6564 13.7075 22.5636 14.013 22.3897 14.2728C22.2158 14.5326 21.9686 14.7351 21.6795 14.8547C21.3903 14.9743 21.0721 15.0056 20.7651 14.9446C20.4581 14.8837 20.1761 14.7332 19.9547 14.5122C19.7334 14.2913 19.5827 14.0097 19.5216 13.7033C19.4606 13.3968 19.4919 13.0791 19.6117 12.7904C19.7315 12.5017 19.9343 12.2549 20.1946 12.0813C20.4548 11.9077 20.7608 11.8151 21.0738 11.8151C21.4936 11.8151 21.8961 11.9815 22.1929 12.2778C22.4897 12.5741 22.6564 12.976 22.6564 13.395Z" fill="white"/>
</g>
<defs>
<clipPath id="clip0_51_3539">
<rect width="30" height="26" fill="white"/>
</clipPath>
</defs>
</svg>
