<svg width="90" height="124" viewBox="0 0 90 124" fill="none" xmlns="http://www.w3.org/2000/svg">
<g clip-path="url(#clip0_38_735)">
<path d="M57.5634 67.6116C57.5634 67.6116 84.6142 60.0055 89.9171 39.2281C89.9171 39.2281 70.2981 53.1872 64.2487 56.7545L58.2103 60.3219L57.5634 67.6116Z" fill="url(#paint0_linear_38_735)"/>
<path d="M58.0167 57.6107C59.0618 61.1346 88.2582 38.7628 89.9171 39.2281C91.576 39.6934 67.1019 55.6192 62.7224 58.9197C58.343 62.2202 58.2047 60.328 58.2047 60.328L58.0167 57.6107Z" fill="url(#paint1_linear_38_735)"/>
<path d="M0.12174 45.4321C0.0885621 47.6097 23.2245 66.6437 36.4845 65.0431C49.7445 63.4424 30.319 57.8402 30.319 57.8402L0.12174 45.4321Z" fill="url(#paint2_linear_38_735)"/>
<path d="M29.5724 57.0709C29.5724 57.0709 9.25107 48.6458 1.66444 45.4818C-5.9222 42.3177 13.9512 56.3202 31.1262 58.684L29.5724 57.0709Z" fill="url(#paint3_linear_38_735)"/>
<path d="M72.8803 26.5595C63.1703 41.232 57.6296 59.0872 59.4378 78.2267C59.2885 79.9204 59.2332 80.7765 59.1613 82.4827C59.1033 88.5486 59.4731 94.6103 60.2672 100.611C55.2906 99.9408 50.4743 104.011 50.4743 104.011C45.0561 98.4877 40.0378 92.4902 35.4669 86.0748C34.5767 84.7533 34.1398 84.0833 33.2938 82.7246C26.1938 62.3257 23.429 41.84 23.628 19.7661C33.1279 8.72291 52.4594 -9.88919 65.0448 6.42742C69.1202 11.7071 71.2491 19.6482 72.8858 26.5409L72.8803 26.5595Z" fill="url(#paint4_linear_38_735)"/>
<path d="M50.5739 102.888C50.5739 102.888 57.4638 110.333 59.8194 110.239C62.175 110.146 59.5927 99.3018 59.5927 99.3018C59.5927 99.3018 52.7415 95.2257 50.5739 102.888Z" fill="url(#paint5_linear_38_735)"/>
<path d="M23.7111 33.297C28.1348 30.9333 33.2607 28.4827 37.9277 28.1849C44.1118 27.9274 50.262 29.3224 55.8713 32.2548C58.5753 33.7065 65.3601 39.9602 65.3601 39.9602C65.7361 39.042 65.9131 38.5829 66.3223 37.6833C66.3223 37.6833 59.1891 30.3005 57.027 29.0721C51.5859 25.9701 44.2315 25.2876 38.3203 25.2628C33.4819 25.2628 28.2232 27.7941 23.6171 30.1578C23.6392 31.411 23.6613 32.0438 23.7111 33.297Z" fill="url(#paint6_radial_38_735)"/>
<path d="M59.4379 78.2266C58.7647 85.6936 59.0384 93.23 60.2508 100.611C57.6021 98.3153 55.8713 99.401 54.6161 101.492C51.1435 100.927 50.5352 103.44 50.4633 103.93V104.011C44.121 97.5731 38.364 90.4448 33.2773 82.7308C33.2773 82.7308 33.2275 80.8137 34.3832 79.7715C35.5389 78.7292 37.6291 78.6734 41.9698 81.4031C42.9265 71.6008 48.6054 67.1338 52.4374 78.8781C52.4263 78.8781 57.0325 70.757 59.4379 78.2266Z" fill="url(#paint7_linear_38_735)"/>
<path style="mix-blend-mode:multiply" opacity="0.3" d="M41.9587 81.4156C39.3156 83.2271 38.0106 84.1639 35.4448 86.0934C34.5546 84.7719 34.1177 84.1019 33.2717 82.7432C26.1717 62.3444 23.4069 41.8587 23.6059 19.7847C27.2776 16.4035 30.4516 16.2856 31.9003 17.9235C34.4993 20.8766 32.3151 30.0524 33.2717 47.008C33.9131 58.3676 37.2696 71.8427 41.9587 81.4156Z" fill="url(#paint8_linear_38_735)"/>
<path style="mix-blend-mode:multiply" opacity="0.5" d="M72.8803 26.5595C63.1703 41.232 57.6296 59.0872 59.4378 78.2267C59.2885 79.9204 59.2332 80.7765 59.1613 82.4826C56.4408 81.1364 55.0915 80.4105 52.4207 78.8781C49.2357 60.266 52.2106 24.7107 63.2256 17.9979C65.0836 16.8626 72.626 26.1128 72.8693 26.5347L72.8803 26.5595Z" fill="url(#paint9_linear_38_735)"/>
<g style="mix-blend-mode:multiply" opacity="0.5">
<path d="M23.617 30.1578C28.3172 27.9306 33.504 25.5731 38.3203 25.2628C44.1651 24.8906 51.9397 26.0384 57.027 29.0721C58.9181 30.2013 66.3223 37.6833 66.3223 37.6833C68.1951 33.7437 70.3866 30.0056 72.8693 26.5161C70.2593 16.7944 66.5545 4.58481 58.4149 0.974063C48.1741 -3.56729 31.4027 9.08273 23.6115 19.7413C23.4302 23.2105 23.4321 26.6888 23.617 30.1578Z" fill="#B64800"/>
</g>
<path style="mix-blend-mode:screen" opacity="0.5" d="M23.6115 19.7599C23.6723 19.8343 43.4296 7.25876 53.0677 10.5531C60.6765 13.1588 72.8693 26.5347 72.8693 26.5347C73.1015 26.4044 67.1406 4.76474 58.4148 0.992685C45.9345 -4.39862 23.6115 19.7599 23.6115 19.7599Z" fill="url(#paint10_linear_38_735)"/>
<g style="mix-blend-mode:soft-light" opacity="0.8">
<path d="M35.29 16.0685C32.116 21.3233 33.1943 40.3262 34.8919 54.2481C36.3738 66.4576 47.0128 75.5962 49.6228 58.8329C53.3055 35.1335 57.884 21.3978 57.591 15.7769C57.3587 11.31 38.276 11.1363 35.29 16.0685Z" fill="#FFEFB1"/>
</g>
<g style="mix-blend-mode:soft-light" opacity="0.2">
<path d="M59.1669 74.2685C58.5752 74.5725 52.6641 53.8386 53.9691 43.968C55.2741 34.0974 72.626 24.7852 72.8693 26.5347C73.2066 28.9543 61.9759 45.4942 60.4166 56.3947C59.5816 62.1831 59.1669 74.2685 59.1669 74.2685Z" fill="#FFEFB1"/>
</g>
<path d="M50.4523 104.011L51.9729 104.457C51.9729 104.457 51.149 100.592 54.6935 101.864C54.6935 101.864 55.9653 97.9679 59.8637 101.014L60.2452 100.611C60.2452 100.611 58.0334 98.4332 56.7229 98.7992C55.4124 99.1653 54.6106 101.492 54.6106 101.492C54.6106 101.492 52.5812 100.778 51.3536 101.61C51.0031 101.859 50.7289 102.223 50.5678 102.652C50.4067 103.081 50.3664 103.555 50.4523 104.011Z" fill="#B64800"/>
<g style="mix-blend-mode:soft-light" opacity="0.5">
<path d="M52.9903 0.794147C45.2875 4.95705 62.3906 14.7098 64.4808 16.4966C70.7072 21.832 72.7365 25.6289 72.7365 25.6289C69.6123 15.0324 64.2983 -0.95539 52.9903 0.794147Z" fill="#FFEFB1"/>
</g>
<path d="M65.4873 9.25647C65.4873 9.25647 67.7379 10.0754 67.6991 14.1266C67.6826 14.1266 64.597 11.8001 65.4873 9.25647Z" fill="#FFEFB1"/>
<g style="mix-blend-mode:multiply" opacity="0.3">
<path d="M24.6179 41.7097C24.0041 33.8058 27.1228 17.514 31.1097 19.7723C32.5861 20.6036 32.3096 29.6243 32.3649 33.3157C32.4976 41.9579 32.8515 50.6311 33.5095 59.1679C33.8136 63.1323 33.2717 74.8331 32.1714 74.1816C29.5614 72.5996 25.4639 52.6598 24.6179 41.7097Z" fill="#FFA66A"/>
</g>
<path d="M33.8911 83.7111C33.8911 83.7111 36.7278 77.4264 42.65 82.8425C42.65 82.8425 43.7062 72.4073 47.2396 72.4259C50.773 72.4445 53.0678 82.6129 53.0678 82.6129C53.0678 82.6129 54.3894 76.6447 56.8114 76.1297C59.2333 75.6148 59.0951 80.5594 59.0951 80.5594C59.2167 79.6226 59.2886 79.1573 59.4379 78.2267C59.4379 78.2267 58.802 74.8145 56.839 74.6594C54.876 74.5043 52.4761 79.1139 52.4761 79.1139C52.4761 79.1139 49.8551 70.2669 46.3936 70.3724C42.932 70.4779 41.9699 81.397 41.9699 81.397C41.9699 81.397 36.0532 77.0541 34.1123 78.388C32.1714 79.7219 33.2828 82.7308 33.2828 82.7308C33.5151 83.1217 33.6423 83.3202 33.8911 83.7111Z" fill="#EC8600"/>
<g style="mix-blend-mode:multiply" opacity="0.8">
<path d="M50.5684 102.888C50.5241 103.303 50.502 103.508 50.4633 103.93V104.011C44.1209 97.5731 38.364 90.4449 33.2773 82.7308C33.2773 82.7308 33.222 80.8138 34.3832 79.7715C34.6277 80.5253 34.8127 81.3017 34.9362 82.0918C37.4964 90.1012 44.3089 99.1901 50.5684 102.888Z" fill="#EA936A"/>
</g>
<g style="mix-blend-mode:soft-light" opacity="0.4">
<path d="M51.9176 99.2522C48.7097 94.0246 45.8026 88.5726 43.214 82.9293C43.214 82.9293 42.9154 74.1258 46.7861 73.5861C50.6568 73.0463 53.2557 83.6924 53.2557 83.6924C53.8087 88.9038 55.6943 95.5483 54.8427 99.4073C54.4888 101.02 51.9176 99.2522 51.9176 99.2522Z" fill="#FFEFB1"/>
</g>
<g style="mix-blend-mode:multiply" opacity="0.3">
<path d="M49.6946 101.076C51.254 96.2245 45.4202 86.2981 42.766 83.7048C39.7579 80.7641 37.0208 81.2232 37.0208 81.2232C39.3653 89.1395 43.6895 96.8822 49.6946 101.076Z" fill="#FFA66A"/>
</g>
<g style="mix-blend-mode:multiply" opacity="0.8">
<path d="M52.4263 78.8781C52.653 80.3795 52.7802 81.124 53.0677 82.6005C53.0677 82.6005 51.2374 76.1793 48.9648 73.2945C46.6921 70.4096 46.0341 70.3848 46.0341 70.3848C46.0341 70.3848 49.1306 69.6279 52.4263 78.8781Z" fill="#EA936A"/>
</g>
<g style="mix-blend-mode:soft-light" opacity="0.3">
<path d="M54.6382 102.553C55.0474 103.694 59.178 109.644 60.0849 109.65C60.9917 109.656 60.2342 103.446 59.6204 101.746C59.0066 100.046 56.5846 99.1281 54.6382 102.553Z" fill="#FFDBB1"/>
</g>
<g style="mix-blend-mode:multiply" opacity="0.8">
<path d="M52.4264 104.29C51.6522 100.822 53.7756 102.776 55.7441 105.084C56.8676 106.393 57.8596 107.837 58.7025 109.39C56.259 108.314 54.0993 106.559 52.4264 104.29Z" fill="#D1726A"/>
</g>
<g style="mix-blend-mode:soft-light">
<path d="M51.3646 70.5585C51.3646 70.5585 48.9482 68.1141 51.066 60.3839C50.9638 63.7791 51.0635 67.1782 51.3646 70.5585Z" fill="#FFEFB1"/>
</g>
<g style="mix-blend-mode:soft-light">
<path d="M61.0746 14.8339C61.0746 14.8339 62.2856 17.3155 62.7335 17.6505C63.1814 17.9855 66.8752 19.1271 66.8752 19.1271C65.1117 17.4259 63.1625 15.9833 61.0746 14.8339Z" fill="#FFFFDD"/>
</g>
<path d="M45.9622 25.6289C45.9622 25.6289 45.0442 27.6887 48.3841 29.0349C51.724 30.3812 55.3017 28.1416 55.3017 28.1416C55.3017 28.1416 51.9673 26.4292 45.9622 25.6289Z" fill="#FFFF72"/>
<path d="M35.9425 53.3485C35.9812 52.0395 38.5469 53.696 42.2794 53.696C46.0119 53.696 47.3169 52.3807 48.6606 52.9887C50.0043 53.5967 47.2948 63.6224 42.4508 63.6534C37.6069 63.6844 35.9148 54.3102 35.9425 53.3485Z" fill="url(#paint11_linear_38_735)"/>
<path d="M48.2294 53.7517C48.1464 54.3721 46.5705 54.9926 46.5705 54.9926C46.5705 54.9926 45.1659 58.5723 44.2314 58.5909C43.2969 58.6095 42.4786 57.5362 42.4786 57.5362C42.3885 57.7464 42.2418 57.9194 42.0591 58.0308C41.8765 58.1421 41.6673 58.1862 41.4611 58.1566C40.6704 58.1132 39.299 56.2147 39.299 56.2147C38.7062 56.0324 38.1529 55.7156 37.6733 55.2841C37.2033 54.732 37.1204 53.1127 37.1204 53.1127C37.1204 53.1127 40.2833 54.2729 42.2408 54.2108C44.0443 54.0172 45.8295 53.6499 47.5769 53.1127C47.5769 53.1127 48.3234 53.1438 48.2294 53.7517Z" fill="url(#paint12_radial_38_735)"/>
<path d="M36.4457 56.0845C36.4457 56.0845 38.1709 64.1497 42.6997 64.1187C47.2284 64.0877 48.5389 56.7235 48.5389 56.7235C48.5389 56.7235 45.929 63.1198 42.4564 62.9834C38.9838 62.8469 36.4457 56.0845 36.4457 56.0845Z" fill="#FFC214"/>
<g style="mix-blend-mode:multiply">
<path d="M48.2293 53.7518C48.1464 54.3722 46.5704 54.9926 46.5704 54.9926C46.5704 54.9926 45.1659 58.5723 44.2314 58.5909C43.2969 58.6095 42.4785 57.5362 42.4785 57.5362C42.4785 57.5362 43.7946 58.5289 44.4471 58.2187C45.0996 57.9085 46.3382 54.4962 46.3382 54.4962C46.3382 54.4962 46.3382 53.8758 45.4701 54.0682C44.6019 54.2605 42.285 54.6327 42.285 54.6327V56.221L41.9477 54.6327C41.9477 54.6327 39.4096 53.8138 39.1829 54.1426C38.9562 54.4714 39.3211 56.221 39.3211 56.221C38.7283 56.0386 38.175 55.7219 37.6954 55.2904C37.2254 54.7382 37.1425 53.119 37.1425 53.119C37.1425 53.119 40.3054 54.2791 42.2629 54.2171C44.0664 54.0235 45.8516 53.6561 47.599 53.119C47.599 53.119 48.3233 53.1438 48.2293 53.7518Z" fill="#EA936A"/>
</g>
<path d="M55.0474 51.1089C50.1924 46.462 51.4144 32.3541 61.4451 33.0551C70.3533 33.6755 70.5579 44.272 66.4218 50.4699C63.3749 54.9926 56.8002 52.784 55.0474 51.1089Z" fill="url(#paint13_linear_38_735)"/>
<path d="M53.3387 44.1355C53.4936 37.125 58.3154 31.8763 64.586 35.0032C70.9893 38.2045 68.6668 50.6187 62.5179 52.1945C57.0491 53.6029 53.2558 47.9696 53.3387 44.1355Z" fill="url(#paint14_radial_38_735)"/>
<path d="M64.221 45.2895C64.0931 46.2596 63.7119 47.1654 63.1256 47.8927C62.5392 48.6199 61.774 49.136 60.9265 49.3757C60.079 49.6155 59.1871 49.5682 58.3636 49.2398C57.54 48.9114 56.8216 48.3166 56.299 47.5306C55.7764 46.7445 55.4731 45.8023 55.4273 44.823C55.3816 43.8437 55.5954 42.8712 56.0418 42.0281C56.4883 41.185 57.1473 40.5092 57.9357 40.086C58.7242 39.6627 59.6067 39.511 60.4719 39.65C61.0487 39.7427 61.6035 39.9623 62.1044 40.2962C62.6054 40.6301 63.0426 41.0717 63.3909 41.5957C63.7393 42.1197 63.9919 42.7158 64.1344 43.3497C64.2769 43.9836 64.3063 44.6428 64.221 45.2895Z" fill="url(#paint15_linear_38_735)"/>
<g style="mix-blend-mode:multiply" opacity="0.5">
<path d="M62.9271 45.0785C62.8076 45.9991 62.367 46.8288 61.7023 47.3849C61.0375 47.9411 60.2031 48.1782 59.3826 48.0441C58.5621 47.91 57.8226 47.4156 57.3269 46.6698C56.8313 45.9241 56.6199 44.9879 56.7395 44.0673C56.7656 43.8715 56.8063 43.6785 56.8611 43.4903C57.0921 42.6989 57.567 42.0259 58.2006 41.5922C58.8341 41.1584 59.5848 40.9924 60.3177 41.124C61.0506 41.2555 61.7176 41.676 62.199 42.3099C62.6803 42.9438 62.9443 43.7495 62.9437 44.5822C62.949 44.7479 62.9435 44.9138 62.9271 45.0785Z" fill="#AB2C51"/>
</g>
<g style="mix-blend-mode:multiply" opacity="0.5">
<path d="M62.9271 45.0785C62.8076 45.9991 62.367 46.8288 61.7023 47.3849C61.0375 47.9411 60.2031 48.1782 59.3826 48.0441C58.5621 47.91 57.8226 47.4156 57.3269 46.6698C56.8313 45.9241 56.6199 44.9879 56.7395 44.0673C56.7656 43.8715 56.8063 43.6785 56.8611 43.4903C56.8611 43.4903 56.2252 47.3492 59.554 47.7152C59.9659 47.8013 60.3896 47.7851 60.7953 47.6679C61.201 47.5507 61.5789 47.3352 61.9025 47.0366C62.2261 46.738 62.4874 46.3636 62.6683 45.9396C62.8491 45.5155 62.945 45.0522 62.9492 44.5822C62.9527 44.748 62.9453 44.9139 62.9271 45.0785Z" fill="#AB2C51"/>
</g>
<g style="mix-blend-mode:soft-light" opacity="0.5">
<path d="M56.9551 47.9138C57.508 47.2934 58.813 48.3729 60.0793 48.1557C61.3456 47.9386 61.8046 48.7017 61.8046 48.7017C61.8046 48.7017 59.6978 50.8297 56.9551 47.9138Z" fill="#FFEFB1"/>
</g>
<path d="M64.7905 45.7486C64.7551 46.0256 64.6472 46.2846 64.4806 46.4928C64.314 46.7011 64.096 46.8492 63.8543 46.9184C63.6126 46.9876 63.3581 46.9748 63.1229 46.8817C62.8877 46.7886 62.6824 46.6192 62.5329 46.3951C62.3835 46.171 62.2967 45.9023 62.2835 45.6228C62.2703 45.3433 62.3313 45.0658 62.4587 44.8252C62.5861 44.5846 62.7743 44.3918 62.9994 44.2713C63.2245 44.1507 63.4764 44.1078 63.7233 44.1479C64.0532 44.2032 64.3504 44.4023 64.5502 44.702C64.75 45.0017 64.8364 45.3778 64.7905 45.7486Z" fill="white"/>
<path d="M59.189 41.2444C59.1762 41.3438 59.1374 41.4368 59.0776 41.5115C59.0177 41.5862 58.9395 41.6394 58.8527 41.6643C58.766 41.6892 58.6747 41.6847 58.5902 41.6515C58.5057 41.6182 58.4319 41.5577 58.378 41.4774C58.3242 41.3971 58.2927 41.3008 58.2876 41.2005C58.2825 41.1002 58.304 41.0004 58.3493 40.9138C58.3946 40.8272 58.4618 40.7576 58.5424 40.7137C58.6229 40.6699 58.7133 40.6538 58.802 40.6674C58.8612 40.6766 58.9183 40.6988 58.9699 40.7328C59.0215 40.7668 59.0666 40.8119 59.1026 40.8655C59.1385 40.9191 59.1647 40.9802 59.1796 41.0453C59.1944 41.1103 59.1976 41.178 59.189 41.2444Z" fill="white"/>
<g style="mix-blend-mode:soft-light">
<path d="M54.4889 50.3395C56.1141 51.4674 57.9461 52.1674 59.8471 52.3869C61.5792 52.5881 63.329 52.3134 64.9454 51.5866C64.9454 51.5866 63.8395 53.5532 59.8913 53.1624C55.9432 52.7715 54.4889 50.3395 54.4889 50.3395Z" fill="#FFEFB1"/>
</g>
<path d="M54.5884 38.6077C54.5884 38.6077 56.8002 33.0241 62.1363 33.4956C63.6077 33.5777 65.0212 34.165 66.1853 35.1782C67.3494 36.1913 68.2079 37.5813 68.6447 39.1599C68.6447 39.1599 60.4664 34.2649 54.5884 38.6077Z" fill="url(#paint16_linear_38_735)"/>
<path d="M54.5884 38.6077C54.5884 38.6077 58.3043 34.8295 64.5417 36.4798C66.8586 37.1002 68.7055 38.6388 69.2916 39.681C70.6353 42.0634 68.2521 44.4333 68.2521 44.4333C68.2521 44.4333 69.7893 39.5321 64.0108 37.6771C57.7568 35.6794 54.5884 38.6077 54.5884 38.6077Z" fill="url(#paint17_linear_38_735)"/>
<path d="M53.0677 47.9138C53.0677 47.9138 64.2099 51.0654 68.1747 46.8281C68.1747 46.8281 64.0274 56.6056 59.189 57.8588C54.3506 59.112 53.0677 47.9138 53.0677 47.9138Z" fill="url(#paint18_linear_38_735)"/>
<path d="M53.0678 47.9138L52.7637 46.9583C52.7637 46.9583 62.9713 50.3519 67.8761 45.9657L68.1747 46.8281C68.1747 46.8281 66.1398 51.2515 53.0678 47.9138Z" fill="#FFB840"/>
<path d="M30.9438 51.1088C35.6163 46.462 35.6827 31.9074 26.0335 32.6146C17.4681 33.235 16.0249 44.272 20.0283 50.4698C22.948 54.9926 29.2573 52.7839 30.9438 51.1088Z" fill="url(#paint19_linear_38_735)"/>
<path d="M32.586 44.1355C32.4367 37.125 27.7863 31.8763 21.7701 35.0032C15.6101 38.2045 17.844 50.6187 23.7552 52.1945C29.0194 53.6029 32.6634 47.9696 32.586 44.1355Z" fill="url(#paint20_radial_38_735)"/>
<path d="M23.3626 45.2895C23.4301 45.924 23.6094 46.5372 23.89 47.0933C24.1707 47.6494 24.547 48.1373 24.9973 48.5287C25.4475 48.9201 25.9626 49.2072 26.5126 49.3732C27.0626 49.5392 27.6366 49.5809 28.2011 49.4958C29.3396 49.2708 30.3545 48.5546 31.0283 47.5006C31.7021 46.4466 31.9814 45.1385 31.8064 43.8563C31.7395 43.2221 31.5609 42.6091 31.2809 42.053C31.0008 41.497 30.6249 41.009 30.1752 40.6175C29.7254 40.226 29.2106 39.9389 28.661 39.7728C28.1113 39.6067 27.5377 39.5649 26.9735 39.65C25.8339 39.8736 24.8177 40.5892 24.1427 41.6433C23.4678 42.6975 23.1877 44.0064 23.3626 45.2895Z" fill="url(#paint21_linear_38_735)"/>
<g style="mix-blend-mode:multiply" opacity="0.5">
<path d="M24.6124 45.0785C24.6594 45.5256 24.7853 45.9578 24.9827 46.3497C25.18 46.7417 25.4449 47.0857 25.7619 47.3617C26.0789 47.6377 26.4417 47.8402 26.8292 47.9573C27.2166 48.0745 27.6209 48.104 28.0186 48.0441C28.8232 47.8889 29.541 47.3848 30.017 46.6406C30.4929 45.8965 30.6888 44.9721 30.5622 44.0673C30.5361 43.8715 30.4954 43.6785 30.4406 43.4903C30.2406 42.7079 29.7935 42.034 29.1829 41.5945C28.5724 41.1549 27.8401 40.9798 27.1228 41.1018C26.3941 41.24 25.734 41.6677 25.263 42.3066C24.792 42.9456 24.5414 43.7532 24.5571 44.5822C24.5618 44.7492 24.5803 44.9154 24.6124 45.0785Z" fill="#AB2C51"/>
</g>
<g style="mix-blend-mode:multiply" opacity="0.5">
<path d="M24.6123 45.0785C24.6594 45.5256 24.7853 45.9577 24.9826 46.3497C25.18 46.7417 25.4449 47.0857 25.7619 47.3617C26.0789 47.6377 26.4417 47.8402 26.8291 47.9573C27.2165 48.0745 27.6209 48.1039 28.0186 48.0441C28.8231 47.8889 29.541 47.3848 30.0169 46.6406C30.4929 45.8965 30.6888 44.9721 30.5622 44.0673C30.536 43.8715 30.4954 43.6785 30.4406 43.4903C30.4406 43.4903 31.0599 47.3492 27.8527 47.7152C24.9607 48.0565 24.6234 45.1468 24.5847 44.5822C24.5803 44.7483 24.5895 44.9144 24.6123 45.0785Z" fill="#AB2C51"/>
</g>
<g style="mix-blend-mode:soft-light" opacity="0.5">
<path d="M30.3521 47.9138C29.8489 47.2934 28.5661 48.3729 27.3496 48.1557C26.133 47.9386 25.6907 48.7017 25.6907 48.7017C25.6907 48.7017 27.7145 50.8297 30.3521 47.9138Z" fill="#FFEFB1"/>
</g>
<path d="M22.8208 45.7486C22.8399 45.9286 22.8906 46.1026 22.9701 46.2605C23.0496 46.4184 23.1562 46.557 23.2837 46.6684C23.4112 46.7797 23.5572 46.8616 23.7131 46.9092C23.8691 46.9569 24.0319 46.9694 24.1921 46.9459C24.5181 46.8851 24.8093 46.6819 25.002 46.3807C25.1947 46.0796 25.2734 45.7051 25.2206 45.3391C25.2015 45.1593 25.1507 44.9855 25.0712 44.8279C24.9917 44.6703 24.885 44.5321 24.7574 44.4212C24.6297 44.3103 24.4837 44.2291 24.3278 44.1822C24.1719 44.1353 24.0092 44.1236 23.8493 44.1479C23.5238 44.2073 23.2326 44.4093 23.0397 44.7094C22.8469 45.0095 22.7681 45.3833 22.8208 45.7486Z" fill="white"/>
<path d="M28.2066 41.2444C28.2133 41.3096 28.2317 41.3726 28.2606 41.4296C28.2895 41.4867 28.3283 41.5366 28.3747 41.5766C28.4211 41.6165 28.4742 41.6456 28.5308 41.662C28.5874 41.6785 28.6464 41.6821 28.7042 41.6725C28.7647 41.6651 28.8231 41.6438 28.8759 41.6099C28.9287 41.576 28.9747 41.5303 29.011 41.4755C29.0474 41.4208 29.0732 41.3582 29.087 41.2918C29.1009 41.2253 29.1023 41.1564 29.0913 41.0893C29.0852 41.0244 29.0675 40.9615 29.0392 40.9045C29.0109 40.8475 28.9726 40.7975 28.9266 40.7575C28.8807 40.7175 28.8279 40.6884 28.7717 40.6718C28.7154 40.6553 28.6567 40.6517 28.5992 40.6612C28.5389 40.6696 28.4807 40.6914 28.428 40.7255C28.3754 40.7595 28.3294 40.8051 28.2928 40.8595C28.2562 40.9139 28.2297 40.976 28.2148 41.0421C28.2 41.1083 28.1972 41.177 28.2066 41.2444Z" fill="white"/>
<g style="mix-blend-mode:soft-light">
<path d="M31.4801 50.3395C29.9273 51.4619 28.1628 52.1629 26.3265 52.3869C24.6576 52.5868 22.9708 52.3115 21.4218 51.5866C21.4218 51.5866 22.4779 53.5532 26.2878 53.1624C30.0977 52.7715 31.4801 50.3395 31.4801 50.3395Z" fill="#FFEFB1"/>
</g>
<path d="M31.3806 38.6077C31.3806 38.6077 29.2517 33.0241 24.1257 33.4956C22.6893 33.6039 21.3176 34.2065 20.1974 35.2212C19.0773 36.2359 18.2633 37.6135 17.8662 39.1661C17.8662 39.1661 25.7293 34.2649 31.3806 38.6077Z" fill="url(#paint22_linear_38_735)"/>
<path d="M31.3806 38.6077C31.3806 38.6077 27.8084 34.8295 21.8309 36.4798C19.6191 37.1002 17.8275 38.6388 17.2635 39.681C15.9751 42.0634 18.2643 44.4333 18.2643 44.4333C18.2643 44.4333 16.7824 39.5321 22.3452 37.6771C28.3393 35.6794 31.3806 38.6077 31.3806 38.6077Z" fill="url(#paint23_linear_38_735)"/>
<path d="M32.8515 47.9138C32.8515 47.9138 22.1296 51.0654 18.3197 46.8281C18.3197 46.8281 22.3066 56.6056 26.957 57.8588C31.6074 59.112 32.8515 47.9138 32.8515 47.9138Z" fill="url(#paint24_linear_38_735)"/>
<path d="M32.8515 47.9138L33.1391 46.9583C33.1391 46.9583 23.324 50.3519 18.6072 45.9657L18.3197 46.8281C18.3197 46.8281 20.2717 51.2515 32.8515 47.9138Z" fill="#FFB840"/>
<path d="M47.7372 58.3738C47.7372 58.3738 46.4875 61.4324 44.0102 62.2451H43.9383C43.5919 62.3498 43.2353 62.4061 42.8766 62.4126H42.672C41.8949 62.3841 41.1357 62.1435 40.4602 61.7116H40.4215C39.1874 60.8615 38.1732 59.6637 37.4797 58.2373C37.9014 58.1245 38.3409 58.1245 38.7626 58.2373C38.8956 58.3267 39.0077 58.4505 39.0895 58.5984C39.1712 58.7462 39.2203 58.9138 39.2326 59.0873C39.4476 59.0101 39.6676 58.9521 39.8906 58.9136C40.1229 58.8825 44.6295 58.8205 45.0498 58.8825C45.1208 58.8928 45.1899 58.9159 45.2544 58.9508C45.4547 59.0525 45.628 59.2106 45.7576 59.4099C45.7548 59.3499 45.7548 59.2899 45.7576 59.23C45.7576 58.8949 45.8405 58.2373 45.9566 58.1567C46.3273 58.1272 46.6999 58.1585 47.0626 58.2497C47.4109 58.3056 47.7372 58.3738 47.7372 58.3738Z" fill="url(#paint25_radial_38_735)"/>
<g style="mix-blend-mode:multiply">
<path d="M40.3883 61.7178C39.1542 60.8677 38.14 59.6699 37.4465 58.2435C37.8682 58.1307 38.3077 58.1307 38.7294 58.2435C38.8624 58.3329 38.9745 58.4567 39.0563 58.6045C39.138 58.7524 39.1871 58.92 39.1994 59.0935C38.9561 59.565 40.3883 61.7178 40.3883 61.7178Z" fill="#EA936A"/>
</g>
<g style="mix-blend-mode:multiply">
<path d="M40.4049 61.7239C41.185 62.1232 42.0217 62.3647 42.8766 62.4374H42.672C41.8757 62.4114 41.0972 62.1664 40.4049 61.7239Z" fill="#EA936A"/>
</g>
<g style="mix-blend-mode:multiply">
<path d="M47.7372 58.3737C47.7372 58.3737 46.4875 61.4323 44.0103 62.2451C45.3816 61.5937 45.2212 58.9569 45.2212 58.9569C45.4215 59.0586 45.5949 59.2168 45.7244 59.416C45.7216 59.3561 45.7216 59.296 45.7244 59.2361C45.7244 59.3602 45.7631 59.4905 45.7908 59.6208C45.9733 60.5328 46.6534 59.9434 46.6534 59.9434C46.6534 59.9434 47.2451 58.7026 47.0184 58.2435C47.411 58.3055 47.7372 58.3737 47.7372 58.3737Z" fill="#EA936A"/>
</g>
<path d="M58.2822 23.718C58.2822 23.718 63.6902 19.3752 66.8974 29.4692C66.8974 29.4692 63.6404 24.1957 58.2822 23.718Z" fill="url(#paint26_linear_38_735)"/>
<path d="M32.5087 20.7835C32.5087 20.7835 27.1063 16.4407 23.8936 26.5347C23.8936 26.5347 27.1505 21.2364 32.5087 20.7835Z" fill="url(#paint27_linear_38_735)"/>
<g style="mix-blend-mode:multiply" opacity="0.8">
<path d="M59.5042 66.985C59.2056 62.4995 73.754 51.357 77.7519 48.5838C81.7498 45.8106 77.4533 55.9542 72.731 59.931C68.0087 63.9078 59.5042 66.985 59.5042 66.985Z" fill="#E0906A"/>
</g>
<g style="mix-blend-mode:multiply" opacity="0.8">
<path d="M15.3115 57.5486C8.4161 52.3559 9.02989 51.8533 9.02989 51.8533C9.02989 51.8533 21.5047 56.525 24.5405 58.6219C27.5762 60.7189 27.5873 63.8333 27.5873 63.8333C27.5873 63.8333 20.1334 61.178 15.3115 57.5486Z" fill="#E0906A"/>
</g>
<path d="M33.7694 114.378C42.0638 114.793 50.3583 114.694 58.6527 114.545L64.8735 114.44H67.9867C68.5065 114.44 69.0262 114.44 69.546 114.471C69.8059 114.471 70.0713 114.471 70.3368 114.52C70.4764 114.534 70.6149 114.559 70.7515 114.595C70.7973 114.608 70.8418 114.627 70.8842 114.651C70.9228 114.674 70.9582 114.703 70.9893 114.737C71.0191 114.78 71.0375 114.831 71.0424 114.885C71.0473 114.939 71.0385 114.993 71.0169 115.041C70.983 115.117 70.9261 115.176 70.8565 115.209L70.746 115.271C70.2393 115.451 69.7219 115.589 69.1977 115.687C68.6834 115.798 68.1692 115.898 67.6604 115.991C66.6319 116.177 65.6034 116.344 64.5749 116.506C62.5179 116.82 60.459 117.109 58.3983 117.374C50.1481 118.423 41.8924 119.304 33.598 119.856C31.5189 119.98 29.4508 120.104 27.344 120.067C26.7873 120.07 26.2317 120.011 25.6851 119.893C25.5863 119.861 25.4902 119.819 25.3976 119.769L25.287 119.682C25.2348 119.63 25.19 119.569 25.1543 119.502C25.1057 119.408 25.0802 119.301 25.0802 119.192C25.0802 119.083 25.1057 118.976 25.1543 118.882C25.2302 118.742 25.3369 118.627 25.4639 118.547L25.6796 118.416C25.9377 118.293 26.2017 118.185 26.4703 118.094C27.4933 117.746 28.5108 117.473 29.5337 117.25C33.6253 116.353 37.7588 115.717 41.9145 115.345C50.2099 114.514 58.5475 114.346 66.8642 114.843C71.0456 115.075 75.206 115.653 79.3113 116.574C80.3398 116.822 81.3628 117.109 82.3803 117.436C82.6659 117.523 82.9451 117.635 83.2152 117.771C83.3854 117.851 83.5469 117.953 83.6963 118.075C83.8031 118.163 83.8997 118.265 83.9839 118.379C84.1155 118.557 84.2015 118.771 84.2327 119C84.2584 119.26 84.21 119.523 84.0944 119.75C84.0202 119.897 83.9249 120.029 83.8124 120.141C83.6683 120.285 83.5085 120.408 83.3369 120.507C83.0694 120.668 82.7901 120.803 82.5019 120.91C81.4758 121.279 80.4282 121.567 79.3666 121.773C78.3271 121.984 77.293 122.164 76.2534 122.325C72.1062 122.945 67.959 123.305 63.7952 123.566C59.6314 123.826 55.5008 123.957 51.3149 123.975C42.9638 124.091 34.6153 123.573 26.3266 122.424C26.1813 122.403 26.0413 122.349 25.9145 122.267C25.7877 122.185 25.6766 122.075 25.5875 121.945C25.4984 121.814 25.4331 121.665 25.3953 121.506C25.3575 121.348 25.3479 121.182 25.3672 121.019C25.3864 120.856 25.4341 120.699 25.5074 120.557C25.5808 120.414 25.6784 120.29 25.7947 120.19C25.911 120.09 26.0437 120.017 26.1853 119.974C26.3268 119.932 26.4744 119.921 26.6196 119.943C34.7937 121.184 43.0331 121.806 51.2817 121.804C55.4105 121.837 59.5411 121.752 63.6736 121.549C67.7987 121.338 71.9238 121.028 76.0046 120.464C77.0221 120.321 78.0395 120.16 79.0404 119.967C80.0246 119.792 80.9966 119.54 81.949 119.211C82.1554 119.136 82.3568 119.045 82.5517 118.938C82.6095 118.903 82.665 118.864 82.7176 118.82C82.7176 118.82 82.7176 118.82 82.6789 118.875C82.6348 118.98 82.6176 119.096 82.6291 119.211C82.6359 119.303 82.6666 119.392 82.7176 119.465C82.6537 119.419 82.5872 119.377 82.5185 119.341C82.3158 119.24 82.107 119.155 81.8937 119.086C80.9205 118.764 79.9362 118.474 78.9408 118.218C74.9172 117.263 70.8364 116.641 66.7315 116.357C58.4822 115.761 50.2057 115.823 41.9643 116.543C37.8472 116.867 33.7491 117.445 29.6886 118.274C28.6822 118.503 27.6703 118.745 26.7081 119.055C26.4792 119.131 26.254 119.22 26.0335 119.322L25.9063 119.397C25.9063 119.397 25.8565 119.459 25.9063 119.347C25.9368 119.283 25.9528 119.212 25.9528 119.139C25.9528 119.067 25.9368 118.995 25.9063 118.931C25.888 118.895 25.8636 118.864 25.8344 118.838C25.8564 118.854 25.8808 118.864 25.9063 118.869C26.3804 118.969 26.8616 119.021 27.344 119.024C29.3844 119.093 31.4636 118.993 33.5261 118.894C41.8205 118.441 50.0652 117.653 58.3099 116.723C60.3742 116.479 62.4331 116.214 64.4864 115.929C65.5094 115.786 66.5379 115.631 67.5609 115.457C68.0696 115.37 68.5839 115.277 69.0871 115.178C69.5867 115.092 70.0801 114.965 70.5635 114.799C70.5872 114.794 70.6098 114.784 70.6298 114.768C70.6298 114.768 70.663 114.731 70.6298 114.799C70.5967 114.868 70.6298 114.973 70.6298 115.004C70.6298 115.035 70.663 115.035 70.6298 115.004H70.5801C70.4652 114.976 70.3488 114.955 70.2317 114.942C69.9829 114.911 69.723 114.892 69.4686 114.88C68.9544 114.88 68.4401 114.843 67.9203 114.83H64.8127L58.5919 114.868C50.3527 114.917 42.0528 114.917 33.7694 114.378Z" fill="url(#paint28_linear_38_735)"/>
</g>
<defs>
<linearGradient id="paint0_linear_38_735" x1="73.5071" y1="66.9453" x2="74.3476" y2="37.7267" gradientUnits="userSpaceOnUse">
<stop stop-color="#E06600"/>
<stop offset="1" stop-color="#D84000"/>
</linearGradient>
<linearGradient id="paint1_linear_38_735" x1="73.8036" y1="60.1988" x2="74.4502" y2="37.7224" gradientUnits="userSpaceOnUse">
<stop stop-color="#FFB000"/>
<stop offset="1" stop-color="#FF8D14"/>
</linearGradient>
<linearGradient id="paint2_linear_38_735" x1="27.5944" y1="70.8959" x2="11.0512" y2="39.6607" gradientUnits="userSpaceOnUse">
<stop stop-color="#E06600"/>
<stop offset="1" stop-color="#D84000"/>
</linearGradient>
<linearGradient id="paint3_linear_38_735" x1="20.7217" y1="64.197" x2="8.27037" y2="40.6876" gradientUnits="userSpaceOnUse">
<stop stop-color="#FFB000"/>
<stop offset="1" stop-color="#FF8D14"/>
</linearGradient>
<linearGradient id="paint4_linear_38_735" x1="48.2403" y1="104.011" x2="48.2403" y2="4.35122e-05" gradientUnits="userSpaceOnUse">
<stop stop-color="#FFC931"/>
<stop offset="0.3" stop-color="#FFB000"/>
<stop offset="1" stop-color="#FF8D14"/>
</linearGradient>
<linearGradient id="paint5_linear_38_735" x1="55.6887" y1="110.239" x2="55.6887" y2="98.2161" gradientUnits="userSpaceOnUse">
<stop offset="0.01" stop-color="#8B4036"/>
<stop offset="0.22" stop-color="#843D37"/>
<stop offset="0.54" stop-color="#6F363A"/>
<stop offset="0.93" stop-color="#4E293F"/>
<stop offset="0.99" stop-color="#482740"/>
</linearGradient>
<radialGradient id="paint6_radial_38_735" cx="0" cy="0" r="1" gradientUnits="userSpaceOnUse" gradientTransform="translate(42.4567 29.3513) scale(22.7243 28.0174)">
<stop offset="0.03" stop-color="#FFE431"/>
<stop offset="0.34" stop-color="#FFD62E"/>
<stop offset="0.73" stop-color="#EC7528"/>
<stop offset="0.95" stop-color="#FDD63A"/>
<stop offset="1" stop-color="#FC7D25"/>
</radialGradient>
<linearGradient id="paint7_linear_38_735" x1="46.7585" y1="104.011" x2="46.7585" y2="71.8427" gradientUnits="userSpaceOnUse">
<stop stop-color="#D86B74"/>
<stop offset="0.93" stop-color="#DD4B00"/>
</linearGradient>
<linearGradient id="paint8_linear_38_735" x1="32.774" y1="86.0748" x2="32.774" y2="16.8688" gradientUnits="userSpaceOnUse">
<stop stop-color="white"/>
<stop offset="0.99" stop-color="#F36881"/>
</linearGradient>
<linearGradient id="paint9_linear_38_735" x1="62.0478" y1="82.4826" x2="62.0478" y2="17.9049" gradientUnits="userSpaceOnUse">
<stop stop-color="white"/>
<stop offset="0.99" stop-color="#F36881"/>
</linearGradient>
<linearGradient id="paint10_linear_38_735" x1="48.2459" y1="26.5347" x2="48.2459" y2="0.210978" gradientUnits="userSpaceOnUse">
<stop offset="0.01"/>
<stop offset="0.04" stop-color="#080400"/>
<stop offset="0.25" stop-color="#502A01"/>
<stop offset="0.44" stop-color="#8C4902"/>
<stop offset="0.62" stop-color="#BB6203"/>
<stop offset="0.78" stop-color="#DD7304"/>
<stop offset="0.91" stop-color="#F27E04"/>
<stop offset="0.99" stop-color="#F98204"/>
</linearGradient>
<linearGradient id="paint11_linear_38_735" x1="42.4729" y1="63.6534" x2="42.4729" y2="52.8274" gradientUnits="userSpaceOnUse">
<stop offset="0.04" stop-color="#C42513"/>
<stop offset="0.19" stop-color="#BC2414"/>
<stop offset="0.44" stop-color="#A62216"/>
<stop offset="0.74" stop-color="#831E19"/>
<stop offset="1" stop-color="#5E1A1D"/>
</linearGradient>
<radialGradient id="paint12_radial_38_735" cx="0" cy="0" r="1" gradientUnits="userSpaceOnUse" gradientTransform="translate(42.6721 54.9533) scale(4.2191 5.39638)">
<stop stop-color="white"/>
<stop offset="0.47" stop-color="#FFFDFD"/>
<stop offset="0.69" stop-color="#FDF6F5"/>
<stop offset="0.86" stop-color="#FBEAE9"/>
<stop offset="1" stop-color="#F8D9D6"/>
</radialGradient>
<linearGradient id="paint13_linear_38_735" x1="58.1695" y1="53.4445" x2="63.7421" y2="34.1794" gradientUnits="userSpaceOnUse">
<stop offset="0.01" stop-color="#FFB000"/>
<stop offset="0.49" stop-color="#F97A00"/>
<stop offset="1" stop-color="#CE2A14"/>
</linearGradient>
<radialGradient id="paint14_radial_38_735" cx="0" cy="0" r="1" gradientUnits="userSpaceOnUse" gradientTransform="translate(59.498 41.2708) rotate(16.0631) scale(7.23059 9.82755)">
<stop stop-color="white"/>
<stop offset="0.41" stop-color="#FEFDFD"/>
<stop offset="0.61" stop-color="#FCF6F5"/>
<stop offset="0.75" stop-color="#F9EAE9"/>
<stop offset="0.87" stop-color="#F4D9D6"/>
<stop offset="0.98" stop-color="#EDC4BF"/>
<stop offset="0.99" stop-color="#ECC0BB"/>
</radialGradient>
<linearGradient id="paint15_linear_38_735" x1="59.2068" y1="49.4918" x2="60.8052" y2="39.6904" gradientUnits="userSpaceOnUse">
<stop offset="0.07" stop-color="#F4A400"/>
<stop offset="0.96" stop-color="#9A3100"/>
</linearGradient>
<linearGradient id="paint16_linear_38_735" x1="61.6165" y1="39.1661" x2="61.6165" y2="33.4708" gradientUnits="userSpaceOnUse">
<stop stop-color="#FF8D14"/>
<stop offset="1" stop-color="#FFB000"/>
</linearGradient>
<linearGradient id="paint17_linear_38_735" x1="62.4585" y1="42.2651" x2="63.5988" y2="35.0781" gradientUnits="userSpaceOnUse">
<stop stop-color="#5E1A1D"/>
<stop offset="0.31" stop-color="#720F19"/>
<stop offset="0.72" stop-color="#860415"/>
<stop offset="1" stop-color="#8D0013"/>
</linearGradient>
<linearGradient id="paint18_linear_38_735" x1="60.6212" y1="57.9581" x2="60.6212" y2="46.8281" gradientUnits="userSpaceOnUse">
<stop stop-color="#FF8D14"/>
<stop offset="1" stop-color="#FFB000"/>
</linearGradient>
<linearGradient id="paint19_linear_38_735" x1="28.6445" y1="53.1299" x2="23.0634" y2="33.8352" gradientUnits="userSpaceOnUse">
<stop offset="0.01" stop-color="#FFB000"/>
<stop offset="0.49" stop-color="#F97A00"/>
<stop offset="1" stop-color="#CE2A14"/>
</linearGradient>
<radialGradient id="paint20_radial_38_735" cx="0" cy="0" r="1" gradientUnits="userSpaceOnUse" gradientTransform="translate(25.1573 41.179) rotate(163.379) scale(6.99457 9.78679)">
<stop stop-color="white"/>
<stop offset="0.41" stop-color="#FEFDFD"/>
<stop offset="0.61" stop-color="#FCF6F5"/>
<stop offset="0.75" stop-color="#F9EAE9"/>
<stop offset="0.87" stop-color="#F4D9D6"/>
<stop offset="0.98" stop-color="#EDC4BF"/>
<stop offset="0.99" stop-color="#ECC0BB"/>
</radialGradient>
<linearGradient id="paint21_linear_38_735" x1="27.416" y1="49.4601" x2="25.8617" y2="39.6642" gradientUnits="userSpaceOnUse">
<stop offset="0.07" stop-color="#F4A400"/>
<stop offset="0.96" stop-color="#9A3100"/>
</linearGradient>
<linearGradient id="paint22_linear_38_735" x1="24.6289" y1="39.1661" x2="24.6289" y2="33.4708" gradientUnits="userSpaceOnUse">
<stop stop-color="#FF8D14"/>
<stop offset="1" stop-color="#FFB000"/>
</linearGradient>
<linearGradient id="paint23_linear_38_735" x1="23.7914" y1="42.4687" x2="22.6463" y2="35.2511" gradientUnits="userSpaceOnUse">
<stop stop-color="#5E1A1D"/>
<stop offset="0.31" stop-color="#720F19"/>
<stop offset="0.72" stop-color="#860415"/>
<stop offset="1" stop-color="#8D0013"/>
</linearGradient>
<linearGradient id="paint24_linear_38_735" x1="25.5856" y1="57.9581" x2="25.5856" y2="46.8281" gradientUnits="userSpaceOnUse">
<stop stop-color="#FF8D14"/>
<stop offset="1" stop-color="#FFB000"/>
</linearGradient>
<radialGradient id="paint25_radial_38_735" cx="0" cy="0" r="1" gradientUnits="userSpaceOnUse" gradientTransform="translate(42.5891 60.2846) scale(3.88179 4.35522)">
<stop stop-color="white"/>
<stop offset="0.47" stop-color="#FFFDFD"/>
<stop offset="0.69" stop-color="#FDF6F5"/>
<stop offset="0.86" stop-color="#FBEAE9"/>
<stop offset="1" stop-color="#F8D9D6"/>
</radialGradient>
<linearGradient id="paint26_linear_38_735" x1="62.5898" y1="29.4692" x2="62.5898" y2="22.7812" gradientUnits="userSpaceOnUse">
<stop stop-color="#5E1A1D"/>
<stop offset="0.31" stop-color="#720F19"/>
<stop offset="0.72" stop-color="#860415"/>
<stop offset="1" stop-color="#8D0013"/>
</linearGradient>
<linearGradient id="paint27_linear_38_735" x1="28.2011" y1="26.5347" x2="28.2011" y2="19.8467" gradientUnits="userSpaceOnUse">
<stop stop-color="#5E1A1D"/>
<stop offset="0.31" stop-color="#720F19"/>
<stop offset="0.72" stop-color="#860415"/>
<stop offset="1" stop-color="#8D0013"/>
</linearGradient>
<linearGradient id="paint28_linear_38_735" x1="54.6603" y1="124.149" x2="54.6603" y2="113.137" gradientUnits="userSpaceOnUse">
<stop offset="0.01" stop-color="#482740"/>
<stop offset="0.24" stop-color="#775969"/>
<stop offset="0.48" stop-color="#A2878F"/>
<stop offset="0.7" stop-color="#C2A9AB"/>
<stop offset="0.88" stop-color="#D5BEBC"/>
<stop offset="0.99" stop-color="#DCC5C2"/>
</linearGradient>
<clipPath id="clip0_38_735">
<rect width="90" height="124" fill="white"/>
</clipPath>
</defs>
</svg>
